<svg viewBox="0 0 1052 744" version="1" xmlns="http://www.w3.org/2000/svg"><defs><style type="text/css">#International_borders { opacity:1; fill:none; stroke:#000000; stroke-width:1.2; } #Cantons_default { fill:#fff3e3; fill-opacity:1; stroke:#000000; stroke-width:0.5; transition: fill 0.5s; } #Cantons_default &gt; path{ cursor: pointer; } #Cantons_default &gt; path:hover, #Cantons_default &gt; path.active{ fill: rgba(138, 198, 121, 0.9); transition: fill 0.5s 0.1s; }</style></defs><g id="Cantons_default"><path id="ZH" d="M642 223.198l-2.967 1.81-3.102-.257-.774-.904-.776-2.844-.904-.13-3.62-.387-1.292-.517-.776-1.422-.13-2.197-.645-2.07-.517-2.326-.13-2.068-1.292-.517-1.422.258-1.034-2.456-2.456.388-1.292-1.68-1.034-1.035-4.136.26-3.232-.26-2.068.776-2.197 1.94-3.102 1.163-4.652.258-3.102.26-3.878-1.163-1.422-1.164-4.292.124c-.65-1.024-1.115-2.6-1.68-3.67-.46-.87-1.25-1.93-1.69-2.813-.403-.815-.845-1.95-1.125-2.815-.108-.333-.333-.865-.307-.856.218-.902-.053-2.176-.257-3.086-.215-.965-.82-2.156-1.125-3.096-.19-.585-.373-1.386-.562-1.97-.305-.94-.693-2.21-1.126-3.097-.35-.716-1.216-1.718-1.622-2.423l3.286-.658 2.376-1.097 2.377-2.65 1.76-3.187 1.76-3.018-.956-.445-1.975 2.797-2.722-.5-1.37-1.12-1.71-2.08-.474-7.77.575-2.585-6.852-3.62-.388-2.198 6.075-7.238.776-1.81-.645-3.1-3.62-2.07-2.197-1.034-.258-.904-.905-5.04-.517-2.845-.388-1.68-1.55-1.292-1.81-5.428 2.068-6.463 1.81-3.36v-4.137l3.36-2.843 4.136-4.137 2.327-5.945.26-3.878-.647-.743 1.305-2.058c.53.243 1.16.695 1.702.855.733.218 1.77.266 2.533.283 1.27.028 2.968-.085 4.222-.282 1.032-.16 2.365-.59 3.378-.843 1.35-.338 3.332-.374 4.504-1.126.455-.29.623-1.207 1.15-1.41.53-.216 1.35.243 1.946.285.674.048 1.585-.108 2.252 0 .79.128 1.778.577 2.533.844.68.24 1.583.575 2.252.844.597.24 1.438.484 1.97.844.693.47 1.518 1.268 1.97 1.97.392.607.592 1.577.845 2.253.254.676.206 1.917.845 2.252.308.162.833-.093 1.126-.28.455-.293.878-.928 1.126-1.408.282-.547.51-1.358.563-1.97.064-.763-.628-1.853-.282-2.534.31-.607 1.545-.595 1.97-1.126.718-.897.584-2.647 1.126-3.66.567-1.057 1.727-2.206 2.45-3.06.644-.655 1.546-1.342 2.053-2.006.413-.54.92-1.322 1.126-1.97.258-.81.285-1.967.28-2.815-.004-.765-.095-1.792-.28-2.534-.11-.442-.453-.967-.564-1.408-.186-.742-.293-1.77-.28-2.533.008-.598.132-1.393.28-1.972.18-.7.123-2.265.845-2.252.535.01.426 1.173.564 1.69.11.416-.004 1.084.28 1.407.178.2.59.207.845.28.334.1.783.348 1.125.283.714-.136 1.607-.78 1.97-1.408.426-.734.344-1.968.282-2.814-.05-.695-.193-1.663-.563-2.252-.35-.56-1.345-.845-1.723-1.327-.4-.66-.49-1.836-.528-2.614-.032-.68.017-1.624.282-2.25.21-.5.905-.915 1.126-1.408.21-.47.207-1.18.28-1.69.1-.673.24-1.572.283-2.25.016-.254-.164-.652 0-.846.332-.39 1.18-.207 1.69-.28.672-.1 1.57-.307 2.25-.282.43.015 1.015.105 1.408.28.386.173.793.587 1.127.845.427.33.988.783 1.407 1.125.51.418 1.202.963 1.69 1.408.176.16.325.534.563.563l-2.07 2.773-.442 1.855 1.502 3.36 1.858 2.892 1.813 1 2 1.125 4.375.875 4.187.125 2.938-1.875 1.562-1.625 1-.75 1-1.5.563-1.063.562.187 3.875.437v.938l2.5 1.25 3.063 1.125 2.812.812.688.874-4.25 7.75-3.938 5.438-1.97-1.25.126-.813-4.686-.75-2.594.156-1.156 1-.22 1.843.378 1.416.85 2.508c.8.057 1.756-.65 2.533-.844.5-.124 1.176-.302 1.69-.282 1.39.056 3.213.6 4.484 1.12l.297 4.304 2.917 1.945 3.778 1.162 2.823 2.544 1.25 1.625-.25 1-3.625.124.5 2.625 1 2.25 1.625 1 2.625-.126 2-.625 2.375 1.25 4.375 2 .625 3.5-1.125 6.374-1.75 4-.625 4.25 2.607 4.873-.177 2.917 1.06 2.917 1.77 1.592 1.413 1.15-2.74.97-1.238 3.27-1.78 2.82c1.607.243 3.692.932 5.176 1.593.636.284 1.358.904 1.99 1.195 1.03.473 2.57.687 3.583 1.194.843.422 2.093 3.793 2.086 6.526l1.054 2.406 2.563 5.48 3.093 4.862.796 5.834-.884 3.89-4.154.706-2.917 2.74-2.033 2.298.62 2.033 1.413-.443.442 1.15-1.68 3.71.088 3.006-5.745 1.503-4.658 1.62-2.188 1.626-1.562.937h-2.25l-4-.563-2.25-1.25-2.563-.563-2.375.75-1.937 2-1.25 2.063.5 1.687.063 4.563M642 223.063l-.47-1.5-1.155-2.437.188-1.907 2.062-1.5 2.125-2.626 1.438-2.687.75-1.563 2.25-.25 9.482-3.138 6.72-.346"/><path id="BE" d="M320.34 422.463l2.808-3.638 4.773-3.712 3.536-1.944 5.304.53 3.535-2.122-3.36-5.304.355-6.894.353-5.303.53-2.652 3.006-1.945 3.71 1.59 1.592-.352 3.006.177.53-4.95-.177-7.955-2.65-2.652-4.243-3.712-2.83-1.768-4.972-1.843c-.593-.62-2.07-.658-2.503-1.395-.42-.716-.25-1.976 0-2.767.305-.967 1.517-1.846 1.938-2.768.284-.623.695-1.544.553-2.214-.195-.925-1.466-1.668-1.937-2.49-.667-1.163-1.48-2.82-1.66-4.15-.102-.746-.107-1.845.276-2.49.517-.873 2.25-1.067 2.768-1.938.383-.647.2-1.743.276-2.49.093-.913-.007-2.173.277-3.045.3-.92 1.27-1.882 1.66-2.768.35-.793.51-1.962.83-2.768.41-1.035 1.067-2.38 1.66-3.32.506-.802 1.223-1.87 1.938-2.492l-.748-.483-2.298-1.414s-2.652-2.122-2.475-2.83c.176-.706.883-2.297.883-2.297l1.944-2.65.707 1.59 2.475 1.944.895 1.436c.634-1.454 2.923-2.328 3.875-3.598.222-.297.612-.74.553-1.107-.094-.578-1.13-.853-1.384-1.382-.326-.678-.236-1.74-.277-2.49-.042-.747.286-1.8 0-2.492-.36-.868-1.408-1.732-2.214-2.214-.746-.444-1.903-.79-2.77-.83-.844-.04-2.074.066-2.766.554-.396.278-.37 1.237-.83 1.383-.78.246-1.752-.76-2.49-1.108-.505-.237-1.11-.762-1.662-.83-.76-.093-1.786.253-2.49.554-.275.117-.537.492-.83.553-.91.187-2.19-.193-3.045-.554-1.315-.557-2.482-2.446-3.874-2.768-.492-.114-1.164.37-1.66.277-.476-.09-1.028-.502-1.384-.83-.526-.485-1.385-1.938-1.354-1.927l-4.227-.306 1.06-8.13-.354-5.835-1.59-5.834 1.767-2.298 4.065-2.65-.707-3.537-3.534-3.89-2.298 1.415-9.016 4.243-9.723 1.59-4.42.178-6.855 2.026-.747-.435-3.89-1.238-5.224-2.65-5.204-4.856c0 .024.876-1.907 1.27-2.726.368-.767.9-1.77 1.268-2.538.394-.818.75-2.004 1.27-2.75.46-.66 1.278-1.39 1.903-1.902.708-.58 1.762-1.208 2.54-1.692.746-.467 1.738-1.107 2.536-1.48.673-.316 1.602-.685 2.327-.847.684-.152 1.632-.117 2.326-.21.702-.097 2.306-.432 2.306-.432l2.904-1.374.935-4.83.312-3.74-.935-3.272-6.544-4.362-7.01-3.74-1.715-1.09-5.92.156-8.413 1.09-5.14 2.493-4.364 2.182-3.427 1.558-3.585 1.558-.623-3.74 2.18-2.804 1.092-4.208-.467-5.92-1.753-3.778 5.803-.662 3.272-2.103 4.75-4.208 2.727-2.65 5.92.625 3.117-.312 1.558-2.493.31-2.493 5.922-.935 3.74-4.986 3.115-6.856.622-3.428 7.478 1.558 13.087-.934-1.246-6.544 3.74-2.18-.31-4.364 1.557-3.427 3.74-.623h4.05l3.115 3.427 5.92 1.246 7.168-.312 6.232-1.246 5.297-2.805 5.296-4.362 3.74-4.985 1.557.624.935 4.984 4.362-.31 9.036.933 5.298.623 6.232 2.182 3.427-2.493 3.116-3.74h6.543l1.795.203-2.263 3.458-2.025 1.793-1.48 2.18-2.337 1.56-6.076 1.713-2.883 1.09-2.492 2.104-.7 2.882-.625 1.09-1.402.468-4.284.935-3.66.467-.078 3.116-3.506 2.96-3.973 2.415-5.998 2.726-5.375 2.18.857 6.856 1.636 1.947 3.35 1.013 1.324.623 1.168 4.75.907 1.72c.43-.357 1.222-.493 1.673-.82.38-.273.72-.84 1.107-1.105.674-.463 1.835-.62 2.49-1.107.615-.458 1.31-1.258 1.662-1.938.314-.608.216-1.618.553-2.214.23-.408.664-.95 1.107-1.107.71-.25 1.745.37 2.49.276.705-.088 1.6-.473 2.215-.83.56-.326 1.124-1.017 1.66-1.384.704-.483 1.692-1.075 2.49-1.383.676-.263 1.777-.114 2.302-.593l.298 4.174.312 4.052 3.038 4.674-1.87 3.66-1.636.47-2.882-.157-4.05-.235-2.026 2.65-1.48 2.18v2.882l-.7 2.103-4.597.312-2.26.234-1.403-1.17-2.882-.466-1.09.78-.156 2.258 1.01 2.415 1.326 2.882 2.26 3.817.544.7.857-.622 3.038-2.18 2.415-1.325 2.415-.702-.078 2.337-.234 1.792 1.324 1.792 2.805-.156 2.882-1.09 1.714-1.325.39-2.103-1.09-1.558-1.014-1.87.467-1.09 3.74-1.792 3.117-1.792 3.038-2.025 2.103-3.973 1.09-4.362.546-3.35 3.038-.935 2.103-.78 2.57.547 2.572 1.635 2.18 2.104 5.376 1.01 5.375.313 3.038-.935 3.66-3.116 2.338-3.116.078-2.26-.39-2.88-2.336-2.26-2.493-1.247-1.87-1.948-1.636-2.415-2.57-5.063.155-1.247-.545-2.025-2.103-1.17-1.402-1.09-1.87.08-1.87-.39v-2.727l-.856-2.65.39-2.336-.08-1.637-.232-1.87 2.414.234 7.557.78 2.025-.312 3.038-1.247 3.038-1.012 2.026-1.17 3.427.39 1.09 1.325 2.804 3.896 1.792 4.44 3.427.468 3.506-.39 3.582-1.714 1.324-.857 1.832 2.816c.586-.498 1.278-1.315 1.896-1.812.476-.383 1.22-.752 1.673-1.162.402-.362.725-1.067 1.174-1.37.31-.207.806-.35 1.175-.39 1.115-.122 2.597.372 3.718.39.824.014 1.916-.166 2.74-.195.763-.026 1.84.293 2.536 0l-.457 1.048-.772 3.305.056 5.454.44 3.47v1.1l-.22 2.425 1.102 4.186 2.644 5.51 1.983 2.643 1.653 2.424.33 1.763-.66 5.068v3.305l2.203 3.305.992 2.534-.99 2.532-1.874 2.093-.88 2.534.77 3.745.22 2.093.11 2.864-.55 2.424-.44 4.517-1.103 2.754 2.203 2.093 2.314 2.754.88 1.983.332 2.975.77 3.195 3.196-.44 3.525.22 2.424.77.66 2.975 1.322 3.746.22 2.313-1.542 3.196-2.093 3.415-.772 3.416-1.1 2.093-2.315 2.423-3.745-.44-1.983 1.872-2.644 1.432-2.865 2.314 1.763 1.323.99 2.093-.11 5.068-1.21 2.534-3.526-.11.44 7.16 1.323 3.636.99 2.093 5.84 4.186 5.508 3.195 6.28 5.288 3.967 4.737 3.58 5.67 2.922-1.362 6.62-1.947 4.52-.655 2.024.305 7.79 1.09 2.805.78 7.01 5.608 6.232 2.182 5.452-2.337 2.96-.935 5.61-.155 3.427-.624 4.675 1.87 4.83 3.117 6.387-4.674 3.428-3.116 3.622-1.52 3.973-1.713.704-1.132 5.722 3.625 1.368 1.368 1.475 1.904 4.09-3.234 5.69 2.72-2.107 3.98-.233 1.947.467 5.297 1.792 3.35 1.168 3.817.156 3.038v3.038l-.857 1.636-1.868 1.167-2.57-.31-2.572-.936-3.116-.545-2.103-.233.235 1.947.623 3.505.935 2.415 1.952 3.203-3.9 4.353-2.493 3.427-2.337 4.05-1.246 5.61v5.297l-.78 3.116-3.583 3.272-3.116 2.18-3.583 1.87-1.402 2.338-7.478 4.674-4.83 1.713-10.283 2.65-5.297.934-3.583-3.428-6.388-1.247-5.92-3.895-4.52-1.714-3.893.312-4.986-2.337-3.74-2.027-3.115.156-2.805 1.87-3.895 2.024-4.362 1.714-.78 9.97-7.01 3.428-2.18 2.96-5.298 4.363-5.765.934-9.503.467-12.932 11.22-14.8 12.15-4.52-6.854-7.79-5.61-5.607-1.09-2.65 2.65-2.18 4.05-2.96 3.74-4.986-.157h-4.52l-2.336 1.246-1.87 1.87 4.518 2.96-1.09 1.713-2.65 2.804-4.205 2.025-4.363 1.4-8.1-2.647-4.83-1.09s-7.947 2.024-8.57 2.336c-.623.31-6.7 4.984-6.7 4.984l-4.517 3.116-4.518 2.805-2.806-1.09-1.402-2.182v-6.388l-4.05-.78-3.896 2.494-2.648 2.024-.78 4.363-1.246 3.895-2.96 2.025-5.86-.125 1.084-2.887-1.414-6.364.177-2.828-3.36-3.005v-7.424l1.768-3.182-.177-3.358-2.12-3.005-.177-3.536 1.238-1.59s3.006 0 3.713-.53c.707-.53 2.475-2.475 2.475-2.475s-.177-3.36 0-4.42c.176-1.06-.53-5.303-.53-5.303l3.18-4.066 2.3-3.358-.354-5.657-.707-6.186-1.217-4.14zm97.55-195.776l1.325-1.13 1.597-.934 1.286.194 1.52 1.52-.08 1.09-.895 1.87s-1.285 1.324-1.44 1.363c-.157.04-2.182.896-2.182.896l-1.363-.117-.7-.975v-2.103l.934-1.675z"/><path id="LU" d="M499.186 347.442l1.485-2.934 3.108-2.74-.365-1.647-4.57-7.128v-2.74l1.28-2.926 2.376-1.828 1.46-2.925.732-2.376.55-7.13 1.644-1.46 2.924-3.292 1.463-2.01 2.924 1.828-.365 2.56 1.828.547 2.193-4.387 1.463-3.473 2.56-2.925 3.106-2.56-2.376-5.117 5.118-4.204 4.204-.366 1.828 1.462 5.724-2.204-2.04-7.782 6.075-2.844 3.23.517 3.103-1.68 5.816 2.197 4.007.13 2.07-.26 1.033 1.035 2.198-1.423 2.974 1.163 3.102-2.973 2.326-1.292 2.456-.13.388 4.266h3.49l2.884-.636c.716.097 1.687.033 2.41 0 .618-.026 1.436-.15 2.054-.177.883-.04 2.062.015 2.946 0 .777-.014 2.004-.6 2.59-.09l1.852 1.34 1.76-.878 3.268.433 1.28-.41 1.097-1.098-.183-6.672-1.554-.777-1.6-.96-1.644-1.827-2.97-2.652-1.588-2.012-1.68-.453-1.422.324-2.585.13-3.053-.64-4.02-.913-2.286-1.554-.456-.64 1.462-1.554 1.37-1.553 1.007-2.468.09-.73 3.566-3.292 3.93-4.935 1.735-1.28 1.874-1.233-.32-2.97-.458-1.555-.914.275-1.462 1.37-2.01-.64-1.83-2.74-2.846-4.628-4.84 1.524-5.397 1.323-2.313.33-1.543-2.533-2.093-4.186-1.983-4.187-2.202-5.84-.77-4.515-1.764-5.288-2.093-6.83-.99-4.628-.22-3.305-.662-2.092-.66-.44-4.297-1.212-.99-1.763-3.416-.77-2.203.11-4.516 5.838-2.534 1.433-.992 2.644-.77 3.966-.33 2.424-1.103 2.203-1.873 1.542-1.983.33-2.314-.66-1.763-1.543-.22-1.323v-1.542l2.534-1.212-.33-1.432-1.764.442-5.067.55-5.288.44-2.644-.55-.11-2.864-.882-2.203-.33-.55-1.653-.332-2.535-.55-2.533.77-1.212.882-.55 2.203-.772 2.314-2.644.77-2.534.22-2.864-.22h-1.873l.22-1.21.22-3.746v-2.755l-.66-1.982-1.543-2.864-1.762.66-2.975.882H482.31l-1.322-1.21-1.322-.222-.11 2.093v8.704l-.55 1.102-.882.992-1.322.77-3.966-.22-1.873-.88-3.304-.44-4.297.55-1.984.55-1.983 1.322-4.176.356-.01 1.076-.22 2.424 1.1 4.186 2.645 5.51 1.983 2.643 1.653 2.424.33 1.763-.66 5.068v3.305l2.203 3.305.992 2.534-.99 2.532-1.874 2.093-.88 2.534.77 3.745.22 2.093.11 2.864-.55 2.424-.44 4.517-1.103 2.754 2.203 2.093 2.314 2.754.88 1.983.332 2.975.77 3.195 3.196-.44 3.525.22 2.424.77.66 2.975 1.322 3.746.22 2.313-1.542 3.196-2.093 3.415-.772 3.416-1.1 2.093-2.315 2.423-3.745-.44-1.983 1.872-2.644 1.432-2.865 2.314 1.763 1.323.99 2.093-.11 5.068-1.21 2.534-3.526-.11.44 7.16 1.323 3.636.99 2.093 5.84 4.186 5.508 3.195 6.28 5.288 3.967 4.737 3.58 5.67 2.922-1.362 6.62-1.947 4.526-.65z"/><path id="UR" d="M684.39 337.887l-4.092 4.162-2.822.375-2.822 1.317-2.07 1.694 1.317 4.89-1.504 4.328-3.198 3.198-.94 4.328-2.823 2.633-3.575-.188-1.88-3.198-3.387.376-.565 2.634-1.505 5.08-4.14 2.257L647 375.35l-5.08.187-2.822 1.693-1.693 3.575.376 2.258 2.07 4.515-1.883 1.13-2.446 3.385v6.21l2.823 3.76 3.387 5.08-1.314 6.204-1.508 2.64-3.01 2.54-4.327.28-1.128-1.692-2.634-1.13-7.43-.75-2.07-1.506-4.328-1.036-5.268 1.035-3.292 3.197-1.41 3.386.657 4.233-.282 2.54-1.223 1.505-5.018 1.65-3.743.232-2.755-.468-2.26-1.246-2.258-1.324-1.324-1.948-1.168-2.726-.935-2.18-2.493-4.052-.935-2.026 1.714-4.985 2.18-5.687.546-10.672-.31-2.337-2.267-1.456-1.785-.476-1.947-3.208-.935-2.415-.623-3.506-.234-1.948 2.104.233 3.116.546 2.57.936 2.572.31 1.87-1.167.856-1.637v-3.038l-.156-3.038-1.168-3.817-1.792-3.35-.467-5.297.233-1.948 2.105-3.983 2.792-.285 1.462.183 1.828.457 1.097.73 3.016-2.832-.183-.914-1.462-2.375-1.463-1.28.366-1.92-4.204-1.005.09-1.096 1.83.09 1.187-.456.548-1.554-.914-1.462-1.19-1.097 1.555-4.478 2.558-2.742 3.84-2.01-.367-2.56-2.1-.64-1.28-.548-4.317-.01-.018-6.663 1.563-4.062-.688-1.188-.688.188-.187-1.5-1.813.125 2.375-3.438 2.375-1.188 3.75-1.375 3.313-2 2.188-1.813 1.312-.562 3.125-2.063 2.438-3.063 3.625-2.625 1.187-1.5-.25-2.813.188-2.438 1.562-1.938 1.375-1.437-.25-1.125-.633-2.012 2.383-.8 2.125 3.25.375 5.374.5 5.813 4.875-.375 3.188 1.187 1.572.185 2.828-.442 5.834-1.503.884 7.07-.354 2.388 1.503 2.652 2.474-1.238 2.032-.795 3.27-3.182 2.564-1.415 3.624-1.06 1.15.442 2.032 1.944 1.414-.177 1.945-1.503 1.15-.884 2.475-.354 3.182.972 1.237 2.033-.354 3.093-.883 3.27.972 2.21 2.827-1.767.707 8.31 1.59-1.238 1.062-1.945 1.503-1.15 5.832-1.767 9.185-5.127 2.055 2.677 2.66 4.39.666 3.592-.133 2.86-2.262 2.794-3.924 2.66-5.056 2.13-4.324 1.395-3.725 1.066-.033 1.33.4 1.497 1.496 4.124.864 3.69"/><path id="SZ" d="M695.696 303.748l-9.184 5.122-5.833 1.768-1.504 1.15-1.06 1.944-1.592 1.237-.707-8.31-2.828 1.768-.973-2.21.883-3.27.354-3.093-1.237-2.033-3.182-.973-2.475.353-1.15.884-1.944 1.502-1.414.176-2.033-1.944-1.15-.442-3.624 1.06-2.563 1.415-3.27 3.182-2.034.795-2.475 1.238-1.503-2.652.354-2.387-.884-7.07-5.834 1.503-2.828.442-1.572-.186-3.188-1.188-4.875.375-.5-5.813-.375-5.375-2.125-3.25-2.372.8-7.18 2.702-7.69 1.238-9.19-2.83-.51-2.554 1.77-.877 3.267.433 1.28-.41 1.097-1.098-.183-6.672-1.554-.777-1.6-.96-1.644-1.827-2.97-2.652-1.588-2.012-1.68-.453-1.422.324-2.585.13-3.053-.64-4.02-.913-2.286-1.554-.456-.64 1.462-1.554 1.37-1.553 1.007-2.468.09-.73 3.566-3.292 3.93-4.935 1.735-1.28 1.913-1.275 2.563-1.27 2.844-1.55 1.68-.39 1.422 4.913.905 2.197 1.682.647 4.006 1.55 2.456-1.033 2.973-.26 3.62-.128.775 3.36 2.714.13 2.585-1.294 2.07-1.55 2.326-.776 1.422-.905 3.49.905 2.843.517 1.164-.776.13-1.29.258-2.716 1.293-1.68 1.938-1.422 1.293-2.197.776-4.136 1.938-4.784-.258-1.292-.784-2.704-.467-1.647-1.155-2.437.188-1.907 2.062-1.5 2.125-2.626 1.438-2.687.75-1.563 2.25-.25 9.482-3.138 6.713-.354 8.242 3.43 12.4.017 7.824-1.37 5.523-1.99 1.768 1.813 1.636.972.22 7.955.664 2.342 2.52-.442 2.94.724-.864 1.75-7.07 15.38 2.12 2.21.796 2.917-.62 1.592-1.59.796-2.12 1.856-.355 1.502 1.414 1.238 1.857.353 1.503.442-2.21 6.01-2.793 5.12-4.312 3.937-2.625-.188-1.938-.376-1.875.188.313 4.875-1.438 1.125 1.25 1.687 1.438 1.374 1.438 2.563.625 1.187.937-.312.438 1.312 2.187 2.563 1.313 1.25-1.25 1.625.937 1.5 2.438 3.187 3.125 2.75 1.737 1.134-1.945 1.59-1.15 1.857-.176 1.592.266 1.326.618 1.59.707.708-2.474 1.06-.795 1.327-3.28 1.595z"/><path id="OW" d="M570.11 346.18l-9.85-8.252 1.28-1.828 1.463-3.473-.365-3.84v-4.57l1.096-8.042.732-5.666 1.096-6.764-2.193-.366-2.743 1.097-3.108-1.463-2.01-.914-.915-2.74-.366-1.647 1.28-2.193 2.558-4.936-.183-2.376-4.204-1.462-7.128-1.463-7.065 2.178-5.73 2.21-1.83-1.462-4.203.366-5.118 4.204 2.376 5.118-3.107 2.56-2.56 2.924-1.462 3.473-2.193 4.387-1.828-.548.365-2.56-2.924-1.827-1.463 2.01-2.924 3.29-1.645 1.463-.548 7.13-.73 2.375-1.463 2.925-2.378 1.828-1.28 2.925v2.742l4.57 7.13.366 1.645-3.107 2.74-1.49 2.927 2.024.31 7.79 1.09 2.805.778 7.01 5.61 6.232 2.18 5.452-2.337 2.96-.935 5.61-.155 3.427-.624 4.675 1.87 4.83 3.117 6.387-4.674 3.428-3.116 3.622-1.52 3.973-1.713.706-1.133zm23.037-21.4l4.313-.013 1.28.548 2.1.64.367 2.56-3.84 2.01-2.558 2.742-1.555 4.478 1.19 1.097.913 1.462-.55 1.554-1.187.457-1.827-.09-.09 1.095 4.203 1.006-.366 1.92 1.463 1.28 1.462 2.375.183.915-3.016 2.833-1.097-.73-1.828-.458-1.462-.183-2.794.292-5.685-2.724-4.09 3.233-1.463-1.907 3.14-2.597.646-1.422v-1.163l-1.163-1.29-1.55-.777-2.457-1.81-1.422-2.585-1.68-2.197-.905-2.584-.774-4.395-.26-3.876-.257-3.36.903-1.68h1.68l1.423 1.162.13.905-1.423.647.13 1.034 1.81.647 1.55-.258 2.197-1.294 1.81-2.197 3.23 3.23 9.177-.53z"/><path id="NW" d="M593.144 324.772l-.02-6.678 1.563-4.062-.687-1.188-.688.188-.187-1.5-1.813.125 2.375-3.438 2.375-1.188 3.75-1.375 3.313-2 2.188-1.813 1.312-.562 3.125-2.063 2.438-3.063 3.625-2.625 1.187-1.5-.25-2.813.188-2.438 1.562-1.938 1.375-1.437-.25-1.125-.63-2.005-7.17 2.695-7.69 1.238-9.193-2.83-.51-2.568-1.843-1.325c-.586-.51-1.813.076-2.59.09-.884.015-2.063-.04-2.946 0-.618.026-1.436.15-2.054.178-.723.032-1.694.096-2.41 0l-2.884.636h-3.49l-.388-4.264-2.456.13-2.326 1.29-3.102 2.974-2.973-1.163-2.197 1.422-1.034-1.035-2.07.258-4.006-.13-5.816-2.196-3.102 1.68-3.23-.517-6.076 2.844 2.042 7.782 7.07-2.183 7.13 1.463 4.203 1.462.183 2.376-2.56 4.936-1.28 2.193.367 1.646.914 2.74 2.01.914 3.107 1.463 2.742-1.097 2.192.366-1.096 6.763-.732 5.665-1.096 8.043v4.57l.365 3.84-1.462 3.472-1.28 1.828 9.85 8.256 5.722 3.623 1.385 1.37 3.135-2.6.646-1.423v-1.163l-1.163-1.29-1.55-.777-2.457-1.81-1.422-2.585-1.68-2.197-.905-2.584-.774-4.395-.26-3.876-.257-3.36.903-1.68h1.68l1.423 1.162.13.905-1.423.647.13 1.034 1.81.647 1.55-.258 2.197-1.294 1.81-2.197 3.23 3.23 9.174-.538z"/><path id="GL" d="M709.087 218.56c.563 1.955 2.958 3.714 4.47 5.075 3.01 2.714 7.708 5.483 10.977 7.882.68.5 1.533 1.244 2.25 1.688.965.596 2.268 1.468 3.38 1.69 1.162.23 2.638-.815 3.78-1.128.912-.25 3.24-.88 3.24-.88l12.72 3.87v3.042l.204 3.446.405 7.703.203 2.736-3.143 4.055-2.534.913-3.548 1.115-1.014.608-.304 1.926.71 2.028 1.317 1.723 2.637.81 5.27.305 2.23-1.014 2.13-1.115 2.33-.71 2.028.71 2.737 1.925 1.014 4.967 1.317 7.197.406 10.338-2.23 2.636-.812.912 2.13 1.825 1.823 2.13 1.623 3.65-.692 3.302-3.063.688-2.728 2.822-2.73 3.104-1.598 2.07-1.223 3.386-2.352-.658-4.986.188-2.634.753-1.88 1.787-2.635 2.916-2.728 2.258-1.693 1.316-1.788-1.034-1.317-2.258-2.07-3.292-2.915-1.41-2.916.28-2.822 1.694s-.753 2.728-.847 3.104c-.094.377-1.975 3.95-1.975 3.95l-1.317 4.893-.66 3.103-2.633 2.822-3.856 1.41-7.055 1.412-3.104.94-4.14 1.788h-3.76l-1.224-2.822-3.763-.847-3.368-.357-.844-3.673-1.497-4.124-.398-1.497.033-1.33 3.725-1.065 4.324-1.395 5.055-2.13 3.923-2.66 2.262-2.793.133-2.86-.665-3.592-2.66-4.39-2.064-2.673 3.285-1.594.796-1.326 2.475-1.06-.707-.708-.618-1.592-.266-1.326.177-1.59 1.15-1.857 1.945-1.59-1.737-1.136-3.125-2.75-2.438-3.188-.938-1.5 1.25-1.625-1.312-1.25-2.188-2.563-.437-1.312-.938.312-.625-1.187-1.437-2.563-1.438-1.375-1.25-1.688 1.438-1.125-.313-4.875 1.875-.188 1.938.375 2.625.187 4.313-3.938 2.792-5.12 2.21-6.01-1.503-.443-1.856-.353-1.413-1.238.354-1.502 2.122-1.856 1.59-.796.62-1.59-.796-2.918-2.12-2.21 7.07-15.38.83-1.743z"/><path id="ZG" d="M641.997 223.203l-2.964 1.806-3.102-.26-.774-.904-.776-2.844-.904-.13-3.62-.387-1.292-.517-.776-1.422-.13-2.197-.645-2.07-.517-2.326-.13-2.068-1.292-.517-1.422.258-1.034-2.456-2.456.388-1.292-1.68-1.034-1.035-4.136.26-3.232-.26-2.068.776-2.197 1.94-3.102 1.163-4.652.258-3.102.26-3.878-1.163-1.422-1.164-4.292.124c-.65-1.024-1.115-2.6-1.68-3.67-.46-.87-1.25-1.93-1.69-2.813-.403-.815-.845-1.95-1.125-2.815-.108-.333-.278-.846-.28-.846-.182.85-1.036 1.748-1.41 2.534-.39.82-1.15 1.905-1.125 2.814.03 1.21 1.223 2.544 1.69 3.66.277.665.687 1.547.843 2.252.238 1.075.24 2.56.28 3.66.047 1.18-.17 2.77 0 3.94.13.872.633 1.96.846 2.814.208.836.283 2 .563 2.815.245.715 1.11 1.497 1.126 2.252.02.832-.9 1.733-1.126 2.533-.348 1.23-.176 3.005-.57 4.24l2.75 4.516 1.828 2.742 2.01.64 1.463-1.37.914-.276.457 1.554.324 3.01 2.597-1.35 2.844-1.552 1.68-.388 1.422 4.912.905 2.197 1.682.647 4.006 1.55 2.456-1.033 2.973-.26 3.62-.128.775 3.36 2.714.13 2.585-1.294 2.07-1.55 2.326-.776 1.422-.905 3.49.905 2.843.517 1.164-.776.13-1.29.258-2.716 1.293-1.68 1.938-1.422 1.293-2.197.776-4.136 1.938-4.784-.258-1.292-.785-2.71z"/><path id="SO" d="M394.404 173.716l-2.26 3.505-2.024 1.793-1.48 2.18-2.337 1.56-6.076 1.713-2.883 1.09-2.492 2.104-.7 2.882-.625 1.09-1.402.468-4.284.935-3.66.467-.078 3.116-3.506 2.96-3.973 2.415-5.998 2.726-5.375 2.18.857 6.856 1.636 1.947 3.35 1.013 1.324.623 1.168 4.75.907 1.72c.43-.357 1.222-.493 1.673-.82.38-.273.72-.84 1.107-1.105.674-.463 1.835-.62 2.49-1.107.615-.458 1.31-1.258 1.662-1.938.314-.608.216-1.618.553-2.214.23-.408.664-.95 1.107-1.107.71-.25 1.745.37 2.49.276.705-.088 1.6-.473 2.215-.83.56-.326 1.124-1.017 1.66-1.384.704-.483 1.692-1.075 2.49-1.383.676-.263 1.777-.114 2.302-.593l.298 4.174.312 4.052 3.038 4.674-1.87 3.66-1.636.47-2.882-.157-4.05-.235-2.026 2.65-1.48 2.18v2.882l-.7 2.103-4.597.312-2.26.234-1.403-1.17-2.882-.466-1.09.78-.156 2.258 1.01 2.415 1.326 2.882 2.26 3.817.544.7.857-.622 3.038-2.18 2.415-1.325 2.415-.702-.078 2.337-.234 1.792 1.324 1.792 2.805-.156 2.882-1.09 1.714-1.325.39-2.103-1.09-1.558-1.014-1.87.467-1.09 3.74-1.792 3.117-1.792 3.038-2.025 2.103-3.973 1.09-4.362.546-3.35 3.038-.935 2.103-.78 2.57.547 2.572 1.635 2.18 2.104 5.376 1.01 5.375.313 3.038-.935 3.66-3.116 2.338-3.116.078-2.26-.39-2.88-2.336-2.26-2.493-1.247-1.87-1.948-1.636-2.415-2.57-5.063.155-1.247-.545-2.025-2.103-1.17-1.402-1.09-1.87.08-1.87-.39v-2.727l-.856-2.65.39-2.336-.08-1.637-.232-1.87 2.414.234 7.557.78 2.025-.312 3.038-1.247 3.038-1.012 2.026-1.17 3.427.39 1.09 1.325 2.804 3.896 1.792 4.44 3.427.468 3.506-.39 3.582-1.714 1.324-.857 1.832 2.816c.586-.498 1.278-1.315 1.896-1.812.476-.383 1.22-.752 1.673-1.162.402-.362.725-1.067 1.174-1.37.31-.207.806-.35 1.175-.39 1.115-.122 2.597.372 3.718.39.824.014 1.916-.166 2.74-.195.763-.026 1.84.293 2.544 0 .844-.35 1.59-1.432 2.152-2.152.842-1.08 1.69-2.713 2.348-3.913.38-.69.713-1.71 1.174-2.35.534-.74 1.635-1.398 2.152-2.15.328-.478.434-1.3.783-1.762.553-.732 1.768-1.247 2.348-1.957.55-.67 1.25-1.685 1.37-2.544.15-1.072-.915-2.448-.783-3.522.08-.652.694-1.366.888-2.012l1.865 1.322 1.928 1.542 2.368.937 3.03.66 5.84.495 3.8.276 1.653-.275 1.267-.495 1.212-1.763.99-3.47 1.93-5.453 1.872-3.8 1.928-4.518-.44-2.148-2.755-2.644-2.37-.386-1.816-.826-2.037-1.212-3.25-1.763-1.873-1.817 2.424-1.432-.11-2.59-.717-3.03-1.597-.44-.716-2.368-.055-1.763-2.15-.22-1.115-.22-.716 2.283-1.013 2.26-.312 3.037 1.48 1.87s.935 2.103 1.324 2.103l-.312 2.648-4.13 3.04-3.426 1.634-4.52-.545-2.803.623-2.65 3.194-3.66 3.66-3.04 2.027-3.504 1.48-4.752 1.793-3.116 2.337-.39 2.415v2.26l-2.337.232-2.57-.39-2.492-1.09-1.792-1.48-2.18-2.025-1.793-2.415-1.09-2.26-2.26-1.4-6.075.855-5.53.312h-3.74l-.935-4.13-.623-3.66-.234-5.063 5.063-.31 1.947-.858 2.26-1.168 1.012-2.493.232-4.05.546-3.116 2.492-2.493 1.792-2.336 2.18-4.284.47-1.246-2.884-1.325-3.27.31-4.286-.7-2.025-2.96-1.247-.468-2.18 2.493-2.65.156-4.83.157-.155 3.583 2.025 2.65.624 2.647-1.247 3.74-1.714 2.882-.233 2.96-7.245.544-1.09 3.895-7.635 1.09-1.246 3.427-.545 1.792-3.585 1.09-2.804 2.258-3.35-2.26-.466-2.18-3.584-.078-3.193.156-1.558 1.013-.858 2.024-.273 1.558 2.92 4.908 6.232 1.402 5.453-1.402 4.363.467v4.44l.39 3.04 1.48 3.582.7 1.557 6.777-.078-.428 2.764m-33.872-42.34l1.115.703 1.714-.7 1.09 1.168 2.805 2.103 2.648 2.65 1.168 2.336-.156 2.414-.78 1.87-.933.935-2.337.233-2.805-1.402-3.817-.935-6.836-.955-.603-5.122-.024-.024 3.726-1.895 4.023-3.38zm57.086 95.273l1.325-1.13 1.597-.934 1.286.194 1.52 1.52-.08 1.09-.895 1.87s-1.285 1.324-1.44 1.363c-.157.04-2.182.896-2.182.896l-1.363-.117-.7-.975v-2.103l.934-1.675zM379.35 116.39l1.967.147 2.104 1.325.156 1.636.156 1.402-1.48 2.337-.78 1.636-1.167 1.324-1.17-.156-2.18-.077-1.87-.233-2.96 1.246-2.103.312-2.026-.702-1.402-.545-.793-1.396.5-.635 1.69-1.693-2.537-2.326-2.327-1.48-1.903-.634 2.326-2.75 1.903-.21 1.903 1.056 2.538 2.538s.635 1.692 2.115 1.904c1.48.21 5.075-1.27 5.075-1.27l2.266-2.755z"/><path id="FR" d="M254.552 294.31l6.017 5.014.176.177 3.182 1.592 1.237 4.773 1.59 4.243 4.067 3.358 2.298 2.475 2.475 1.77.177 4.95-1.59 4.065 1.943 1.237 1.768-2.12 3.005-2.83 1.59-3.358.53-5.304 3.714-2.828 3.005-2.652-2.828-5.833-4.42-7.78-1.238-1.59v-5.48l.915-3.81 6.863-2.023 4.42-.177 9.722-1.59 9.016-4.244 2.298-1.414 3.535 3.888.708 3.536-4.065 2.65-1.768 2.3 1.59 5.833.354 5.834-1.06 8.132 4.226.306c-.03-.01.828 1.442 1.353 1.927.355.328.907.74 1.383.83.496.094 1.168-.39 1.66-.277 1.392.322 2.56 2.21 3.874 2.768.855.36 2.136.74 3.045.553.293-.062.555-.437.83-.554.704-.3 1.73-.647 2.49-.554.553.068 1.157.593 1.66.83.74.35 1.712 1.354 2.492 1.107.46-.147.434-1.106.83-1.384.692-.488 1.92-.594 2.767-.554.867.04 2.024.386 2.77.83.805.482 1.853 1.346 2.213 2.214.286.69-.042 1.745 0 2.49.04.75-.05 1.814.276 2.492.254.53 1.29.804 1.383 1.383.06.368-.33.81-.553 1.108-.952 1.27-3.24 2.144-3.875 3.598l-.896-1.436-2.476-1.944-.707-1.59-1.944 2.65s-.707 1.59-.884 2.298c-.178.707 2.474 2.83 2.474 2.83l2.298 1.413.75.483c-.716.62-1.433 1.69-1.938 2.49-.594.943-1.25 2.287-1.66 3.322-.32.806-.48 1.975-.83 2.767-.392.885-1.36 1.846-1.66 2.767-.285.872-.185 2.132-.278 3.044-.075.75.107 1.845-.276 2.492-.517.87-2.25 1.065-2.768 1.937-.383.645-.378 1.744-.276 2.49.18 1.33.993 2.987 1.66 4.15.47.822 1.742 1.565 1.937 2.49.142.67-.27 1.592-.553 2.215-.42.922-1.633 1.8-1.938 2.768-.25.79-.42 2.05 0 2.767.434.737 1.91.776 2.503 1.395l4.973 1.843 2.83 1.768 4.24 3.712 2.653 2.652.178 7.955-.53 4.95-3.006-.177-1.59.353-3.713-1.59-3.006 1.945-.53 2.652-.354 5.303-.354 6.894 3.36 5.304-3.536 2.12-5.304-.53-3.535 1.945-4.772 3.712-2.77 3.613-6.6 3.458-3.712-1.944-3.358 2.828-2.83 1.59-3.358 1.77-2.65 4.242-4.067 4.42-3.712 2.297-6.187.706-3.712.884-3.358 3.182s-3.358 3.536-3.182 4.42c.177.884-3.005 4.596-3.005 4.596l-3.182 2.65-4.243 1.416.708-2.122-1.238-5.126-1.59-6.894-.354-3.713-4.597-1.238-4.066-1.945-4.42-3.89-2.475-2.474-1.415-.53-3.89 3.36-1.944 3.004-3.888 2.12-3.535-.53-1.59-3.358-.885-1.945-3.005-1.945.53-3.005.884-2.298 3.89.177 3.182 3.005 3.536 1.06-.177-2.652.885-1.768 1.59-.177 1.238-1.59 1.768-2.476 3.006-2.65.932-1.544-1.462-1.11-3.005-.706-3.18-1.414-3.183-2.83-2.83.532-3.358 1.767-1.415-2.474-1.768.707-3.182 1.414-.707-2.122v-8.84l-.884-5.656v-6.187l1.59-.53 3.537-3.36 2.653-1.944 2.12.178 1.592 1.414 3.36-.177 1.413-2.65.353-4.598 6.19-6.717 8.307-10.253.53-3.712-2.65-2.3.883-2.65 4.42-4.95 2.474-2.828 1.59-5.657.885-4.243 4.065-3.005.176-6.187-1.59-3.536v-5.304l-2.12-.884-4.067-3.36-4.773-5.302-5.36-7.47 7.652-6.56zm-15.28 12.838l5.21 4.727 2.12-.176 2.476 2.65-5.126 2.83.177 1.06 3.357-1.415 3.36 5.127-2.653 2.298-2.298 5.48-.176 1.944-1.768 4.773 2.475.177.53-1.768 1.768-.176 1.237.707-.884 2.298v3.89l-1.06 3.888-2.122 2.12h-3.005l-3.888-1.59-2.828-1.767-2.298 2.474-2.3 1.238-2.12-.354-4.95-2.12-4.596-3.36 1.59-1.06-4.065-3.006-1.95-1.56-.52-11.17 24.306-18.16zm-23.78 50.69l-1.946 3.18.53 2.83 2.3 1.768 1.766-1.59.884-3.537-.176-3.006-3.36.353zm8.838 2.65l2.65.355 2.3 1.59-1.945 2.83-2.298 1.06-1.06-1.59.353-4.244zm3.182-.883l3.89-4.95 2.12-3.712-.707-1.59 1.59-.885 2.3 3.005 3.18 3.182 1.062 1.59-2.83 5.305-1.943 3.005-2.122-.354-2.298-2.297-4.242-2.298z"/><path id="BS" d="M394.357 95.13l2.93 1.31.467 4.362 2.337-.312 1.87 2.337 3.272-.623 1.714-1.714-.623-4.83 2.615-2.037 1.562-1.76.846-2.115.634-1.27 2.115.212L416 87.21v-1.058l-.424-.845-1.692-.635-.212-2.326 1.904-1.904.21-1.27-1.48-.21-2.326 1.692-2.114 1.057-2.816 1.126-3.106.345-2.493 1.192-3.428 3.684-.746 4.15-2.92 2.924z"/><path id="BL" d="M353.717 141.85l.413 2.03 1.09 1.948 5.22 4.674 1.597 2.414 2.92.546 1.875-.296.23-1.652.857-2.025 1.557-1.014 3.193-.156 3.584.078.467 2.18 3.35 2.26 2.805-2.26 3.584-1.09.544-1.79 1.246-3.428 7.634-1.09 1.09-3.896 7.246-.545.233-2.96 1.714-2.884 1.247-3.74-.624-2.647-2.025-2.65.156-3.583 4.83-.156 2.65-.155 2.18-2.493 1.247.468 2.025 2.96 4.285.7 3.27-.31 2.884 1.324-.467 1.246-2.18 4.284-1.793 2.337-2.492 2.494-.546 3.116-.233 4.05-1.014 2.494-2.26 1.168-1.947.857-5.064.31.234 5.064.623 3.66.934 4.13h3.74l5.53-.312 6.077-.856 2.26 1.402 1.09 2.26 1.79 2.414 2.182 2.025 1.792 1.48 2.493 1.09 2.57.39 2.338-.233v-2.26l.39-2.414 3.116-2.337 4.752-1.792 3.505-1.48 3.04-2.025 3.66-3.66 2.65-3.195 2.803-.623 4.52.545 3.426-1.635 4.128-3.04.31-2.647c-.388 0-1.323-2.103-1.323-2.103l-1.48-1.87.312-3.038 1.012-2.26.715-2.334-2.685-1.712-.55-3.525.22-2.315-2.865-.33-2.424-.11-1.872-1.102-2.423-3.195-1.102-4.076-3.085-5.51-2.533-3.414-2.094-2.644-.99-1.212-1.653-1.1-1.542-.11-1.432.88-.77 1.432-.552 2.424-.55 1.983-.77 2.424-2.204 2.094-2.314 1.652-3.415.22-.22-2.313.33-1.542-.66-1.212-1.543-.77-3.25-2.866-2.864-1.487-2.92-1.047-.367-1.613c-.935.22-2.218.446-3.094.845-.555.252-1.14.864-1.69 1.126-1.037.493-2.56.793-3.66 1.126-.843.257-1.932.858-2.814.845-.8-.01-1.793-.537-2.533-.844-.873-.36-2.07-.826-2.815-1.407-.614-.48-1.197-1.368-1.69-1.97-.608-.747-1.456-1.72-1.97-2.535-.503-.798-.662-2.133-1.215-2.754l-2.58 2.01.623 4.83-1.714 1.714-3.27.623-1.87-2.337-2.338.312-.467-4.363-2.93-1.31-2.79 1.417-2.84.345-3.183.736-3.595 1.214-2.75 3.595.634 4.44 1.903 2.328v3.807l-2.362 3.384c1.184.082 1.267.09 1.942.14l2.104 1.326.156 1.636.156 1.402-1.48 2.337-.78 1.636-1.167 1.324-1.17-.156-2.18-.077-1.87-.233-2.96 1.246-2.103.312-2.026-.702-1.402-.545-.81-1.468-1.6 1.34-1.48 1.48-1.905 4.022 1.12.703 1.714-.7 1.09 1.168 2.805 2.103 2.648 2.65 1.168 2.336-.156 2.414-.78 1.87-.933.935-2.337.233-2.805-1.402-3.817-.935-6.8-.94zm-.66-5.16l.664 5.165-5.588-.546-4.13-3.818.126-2.847c1.058.13 2.353.79 3.392.992 1.236.238 2.96.086 4.18.398.44.112 1.008.418 1.356.654z"/><path id="SH" d="M621.64 81.848c-.806.89-1.813 1.96-2.38 3.017-.543 1.012-.41 2.762-1.126 3.66-.426.53-1.662.518-1.97 1.125-.347.68.345 1.77.28 2.533-.05.613-.28 1.424-.562 1.97-.248.48-.67 1.116-1.126 1.408-.293.19-.818.444-1.126.282-.64-.335-.59-1.576-.845-2.25-.253-.677-.453-1.647-.844-2.253-.452-.704-1.277-1.503-1.97-1.972-.532-.36-1.373-.604-1.97-.844-.67-.27-1.572-.604-2.252-.845-.755-.268-1.742-.717-2.533-.845-.667-.108-1.578.048-2.252 0-.595-.042-1.415-.5-1.947-.285l.555-2.3-2.748.422-2.96-.846-1.06-1.27.636-2.325.423-1.903L594.92 76l2.327-1.48 1.903-1.057 2.75-1.48 3.383-1.692 2.75-.21 1.48 1.268 2.116 1.48 1.903.635 2.114 1.058 1.058 1.693.634 1.69-.846 1.482.846 1.27 1.904.845 1.48.21.92.138zM638.76 52.03c-.487-.444-.977-.807-1.488-1.225-.42-.342-.98-.794-1.407-1.126-.334-.26-.74-.673-1.126-.845-.392-.176-.976-.266-1.406-.28-.68-.026-1.58.182-2.252.28-.51.074-1.357-.11-1.69.28-.163.195.017.593 0 .846-.042.68-.182 1.58-.28 2.253-.075.508-.073 1.22-.282 1.69-.22.492-.916.908-1.126 1.406-.265.626-.314 1.57-.282 2.25.037.78.11 1.955.52 2.615l-1.406-1.516-.846-.847-1.586-.952-1.48-.527-1.058.317-1.48.74-2.75-.106-3.49-.106-1.586.423-.423.847-1.393.73-.898 1.047-1.645.598-.597 2.094.598.897-.298.45-6.43-.15-3.29.747-.748 1.047-.448.748-1.047-.3-.3-1.046.3-1.497-.3-2.093-1.047-.6h-5.682l-1.645-1.494-1.944-1.496-1.794-.448.3-2.393 1.345-2.693.3-1.794-.897-2.842 1.197-2.39 2.243-2.095 2.093-1.944 1.795-1.794 1.197-2.093.6-2.243 1.045-2.393.898-2.243 1.645-1.795 1.645-1.496 1.944-1.496 2.392-1.196 2.692-.598h1.944l1.645-.45 1.795-1.195 1.794-.9 2.692.6 1.944-.15 1.346-1.346-.3-1.944-.597-1.645-1.046-.897.3-1.944 1.644-.45h2.842l3.44.898 1.644.748 3.29 1.346-.45 1.645-.148 1.496.15 2.094.448 1.944.897 2.393 1.497 1.346 2.093.448.898-1.045 1.346-2.543-1.197-4.187-.3-2.094.3-1.494 2.094 1.795 1.945 1.795 1.645 1.496 1.196 1.197.45 1.196v1.795l-.3 2.99.3 1.197 1.943-.15.747-1.046 1.944-.9 1.945-.148 2.542 1.196.898 2.692-.898.748-1.645 2.392-.897 2.244.45 2.243 1.943 1.645 1.346 1.944-.3 2.094-1.644.3-1.496-.3-1.196-1.496-1.047-.748-2.84-.3-2.094.15-1.944.3-.897.897-1.047 1.496.3 1.644-.45 1.944-.3 1.645.504 1.228zm47.493 10.595c-.802-.367-1.977-.576-2.818-.842-.763-.242-1.833-.454-2.533-.844-.576-.322-1.185-.983-1.69-1.41-.594-.5-1.37-1.19-1.97-1.688-.416-.344-.98-.794-1.407-1.126-.334-.258-.744-.663-1.126-.844-.627-.3-1.555-.52-2.25-.563-.68-.042-1.573.238-2.252.28-.843.053-1.978.113-2.808 0l.918-1.796.598-1.645 1.047-1.945.448-1.496-1.045-1.197-1.496-.898-1.795-.3-1.496-.597-.898-1.196.448-1.197-.15-1.495 1.347-1.047 1.495-1.196 1.197-.748 1.045-.3 1.496.3.15.747.748 1.645 1.047.448 1.794.898 2.542.897 1.196.3 2.393.747 2.094 1.645 1.645.897.448 1.496-.748.598-1.196.3-1.346-.3-1.196 1.196v1.795l1.944 2.242 1.196 2.692.598.897 1.346 1.496.898 1.496.14 1.653z"/><path id="SG" d="M818.685 91.486l-11.61 16.132-1.622 1.318-2.94 2.737-3.142 1.317-1.012 3.447-.71 3.244-1.622-.608-3.04-.912-.507-2.534-2.637-3.65-2.33-.405-2.84-2.533.304-.304.913-1.926-1.723-.405 1.216-2.433-2.737-1.522-1.115 1.115-2.634.304-2.94.507-2.23.406-1.217 2.128-2.13 1.115-1.114.507-.203 1.217 2.838.608 1.623-.81 2.636-.204 2.533 2.94.912 4.36.406 2.128-2.838 1.217-4.156.506-4.156 1.623-2.838 1.217-3.345-.304-3.75-2.636-2.028-1.216-4.36.405-1.42-1.52-.708-1.826-1.52-.1-2.23-.61-3.75-3.142-1.116 3.244-3.65 3.446-2.736.913-5.373.506-2.94-1.722-1.925-2.027-4.46-2.128-2.94-.507-2.838 1.318-3.852.912-1.723 1.825-.103 2.433 1.926 3.345 1.825 1.318 3.852 3.04 1.52 1.014-.507 4.055-1.317 2.23h-3.954l-5.17.608-1.114 1.52-.913 4.968-2.027 1.724-1.115 3.244-.622 2.095-1.217.502-1.362 1.79-1.927 1.07 1.047 2.4 2.563 5.482 3.093 4.86.796 5.835-.884 3.89-4.154.706-2.917 2.74-2.033 2.298.62 2.033 1.413-.443.442 1.15-1.68 3.71.088 3.006-5.745 1.503-4.658 1.62-2.188 1.626-1.562.937h-2.25l-4-.563-2.25-1.25-2.563-.563-2.375.75-1.937 2-1.25 2.063.5 1.687.094 4.532 8.28 3.406 12.402.017 7.823-1.37 5.523-1.99 1.768 1.813 1.636.972.22 7.955.664 2.342 2.52-.442 2.905.73c.53 1.962 2.96 3.714 4.47 5.075 3.013 2.714 7.71 5.483 10.98 7.882.68.5 1.532 1.244 2.25 1.688.964.596 2.267 1.468 3.378 1.69 1.163.23 2.64-.815 3.782-1.128.91-.25 3.238-.88 3.238-.88l12.722 3.87v3.042l.203 3.446.405 7.703.203 2.736-3.143 4.055-2.534.913-3.548 1.115-1.014.608-.304 1.926.71 2.028 1.317 1.723 2.637.81 5.27.305 2.23-1.014 2.13-1.115 2.33-.71 2.028.71 2.737 1.925 1.014 4.967 1.317 7.197.406 10.338-2.23 2.636-.812.912 2.13 1.825 1.823 2.13 1.623 3.65-.722 3.33 3.865 4.068 1.115-.608 1.825-1.318 2.027-.304 2.534.102 2.84 1.013 3.75.913 5.676.71 6.487.405 4.256 1.014 3.143 1.217 4.864 2.636 3.447 1.723.71-.61.913-1.52.202-1.925-.71-2.433 3.55-.1-.103-2.23-1.013-2.03.303-3.04 1.723-4.257 3.75-4.156 3.954-6.894 1.216-2.737 2.13-1.014 3.41-1.844c-.608-.914-1.753-1.883-2.388-2.783-.554-.788-1.183-1.916-1.592-2.788-.867-1.847-1.5-4.53-2.388-6.37-.908-1.88-2.752-4.054-3.583-5.97-.346-.798-.314-2.063-.79-2.79-.527-.704-1.736-.87-1.997-1.59-.225-.62.06-1.613.436-2.155.454-.655 1.687-.846 2.252-1.407.782-.776 1.325-2.205 1.97-3.097.704-.972 1.97-2.036 2.534-3.096.414-.78.622-1.962.844-2.815.197-.753.478-1.76.563-2.533.102-.925.16-2.182 0-3.098-.214-1.236-.963-2.766-1.407-3.94-.322-.85-.804-1.964-1.126-2.815-.444-1.174-.933-2.78-1.407-3.94-.458-1.12-1.347-2.5-1.69-3.66-.168-.573-.166-1.384-.28-1.97-.202-1.026-.616-2.36-.845-3.378-.19-.84-.408-1.97-.563-2.816-.186-1.01-.44-2.358-.564-3.378-.133-1.093-.392-2.564-.282-3.66.062-.61.28-1.423.563-1.97.496-.96 1.604-1.95 2.252-2.814.617-.825 1.374-1.973 1.97-2.815.838-1.186 2.046-2.708 2.814-3.94.66-1.06 1.6-2.47 1.97-3.66.228-.73.205-1.773.282-2.533.094-.928-.06-2.23.282-3.097.353-.895 1.208-1.945 1.97-2.533.51-.393 1.438-.484 1.97-.845.693-.47 1.54-1.255 1.97-1.97.593-.985.8-2.56 1.127-3.66.175-.59.275-1.427.563-1.97.308-.584.862-1.318 1.407-1.69.44-.3 1.24-.272 1.69-.562 1.152-.748 2.37-2.21 3.095-3.378.62-1 .9-2.6 1.408-3.66.507-1.057 1.442-2.33 1.97-3.377.58-1.15 1.064-2.817 1.69-3.94.5-.902 1.417-1.945 1.97-2.816.364-.575.804-1.37 1.125-1.97.357-.666.448-1.92 1.126-2.252.386-.19.978.24 1.407.282 1.008.1 2.367.07 3.377 0 .596-.043 1.41-.077 1.97-.282.75-.273 1.917-.685 2.253-1.407.25-.542-.104-1.4-.282-1.97-.112-.36-.362-.807-.563-1.127-.513-.813-1.265-1.877-1.97-2.532-.223-.207-.7-.295-.845-.563-.28-.52-.064-1.383 0-1.97.085-.774.503-1.758.563-2.534.106-1.348-.023-3.174-.28-4.502-.307-1.573-1.774-3.467-1.69-5.067.053-1.018 1.465-2.077 1.407-3.095-.028-.492-.563-1.003-.844-1.408-.31-.444-.664-1.126-1.126-1.407-.736-.448-2.03-.212-2.815-.563-.77-.345-1.584-1.172-2.252-1.69-.427-.33-.875-1.03-1.407-1.125-.263-.047-.594.19-.845.282-.427.156-.96.477-1.407.563-.082.015-.196 0-.28 0-.423 0-1.032.193-1.408 0-.646-.333-.995-1.373-1.407-1.97-.173-.25-.406-.585-.563-.845-.548-.906-1.055-2.25-1.69-3.097-.5-.67-1.402-1.357-1.97-1.97-.528-.57-1.32-1.285-1.688-1.97-.292-.542-.563-1.97-.542-1.887l-7.866-15.02-11.44-6.872zm-35.11 103.44l6.175 3.812 2.917 1.15 3.447.088 1.502-.884 4.42-2.563 2.828-2.123 6.276-6.098 3.624-4.863 2.12-5.657 1.327-7.336.09-4.86-.883-4.326-.417-2.3-1.25-2.5v-2.25l1.625-4.124 1.187-3.165 1.063-.694 2.74.088 2.563.265 2.74.372 1.582-.993 1.75-1.876 4-.875 2.57-2.03 3.622-1.318 1.816-1.53 3.867-4.373-2.125-1.25-5-2.75-4.5-1.5-4.125-2.25-3.25-2.376-3.5-.125-2.75 2.624-3.25 3.625-5 2.25-4.75 1.374-4.375.875-1.375 4.624H800.5l-3.75 1.75-5 .875h-1.625l-4.5-.126-4.5.75-3.5 2.5-5.375 1.375-5.375.374-4.25.75-2.75 2.75-3 2-.25 1.875-.625 3-2.625 2.75-2.625 1.374.125 1.625 2.25 2.374v2.5l.75.625 2.375-1.75 3 2.5-1.5 1.5-3.25 2.624-.375 2.625 1.125 5.374 1.875.875-2.75 5.874 3.125 1.875 3 1.5 3.375.5 3-.5 2.375-1.5 2.5 2 5 3.25 4.125 2.124 2.7-2.167zm33.333-84.774l-.406 1.622-1.52 3.142-2.737 2.13-2.534-.508-2.128-1.824.1-2.94 1.725-3.142 2.23-1.622 2.433.912 2.838 2.23z"/><path id="AR" d="M843.008 138.348l-2.977-2.535-3.405-2.656-2.844-1.094-3.81 1.094.28 3.187 2.75 1.938 2.22 1.53 2.395 1.374L835 143.22l-4 .874-1.75 1.875-1.578.953-.203-2.797 4.78-2.532-2.063-1.78-2.156-3.345-1.092-2-1.625.656-2.813.875-1.28.97-1.19 1.562 2.75 1.937-1.092 1.437-2.375 1.22-1.563 1.967.795 1.864-1.17 3.136-1.625 4.125v2.25l1.25 2.5.406 2.342-3.406.782-3.375.125-2.75-1.25-2-4-5.125-2.25-6.25-2.5-3.875-1.626-3.5.75-2.5.75 1.5 3.625 1.125 1.5-1.75 2.75-4.125 3.624-3.125 3.5-.75 5.875-1.125 6.374 2.125 4.25 2.375 2 1.875 4.625.856 4.77-2.73 2.104-4.126-2.125-5-3.25-2.5-2-2.375 1.5-3 .5-3.375-.5-3-1.5-3.125-1.876 2.75-5.875-1.875-.876-1.125-5.375.375-2.626 3.25-2.625 1.5-1.5-3-2.5-2.375 1.75-.75-.626v-2.5l-2.25-2.375-.125-1.626 2.625-1.375 2.625-2.75.625-3 .25-1.876 3-2 2.75-2.75 4.25-.75 5.375-.375 5.375-1.376 3.5-2.5 4.5-.75 4.5.125h1.625l5-.876 3.75-1.75h2.375l1.375-4.625 4.375-.876 4.75-1.375 5-2.25 3.25-3.626 2.75-2.625 3.5.124 3.25 2.375 4.125 2.25 4.5 1.5 5 2.75 2.125 1.25-3.867 4.378z"/><path id="AI" d="M783.594 195l-.844-4.78-1.875-4.626-2.375-2-2.125-4.25 1.125-6.375.75-5.876 3.125-3.5 4.125-3.625 1.75-2.75-1.125-1.5-1.5-3.626 2.5-.75 3.5-.75 3.875 1.625 6.25 2.5 5.125 2.25 2 4 2.75 1.25 3.375-.126 3.404-.788.895 4.287-.09 4.86-1.325 7.337-2.12 5.657-3.625 4.862-6.276 6.097-2.828 2.122-4.42 2.562-1.502.884-3.447-.09-2.917-1.148-6.156-3.738zm59.422-56.656l-2.985-2.53-3.405-2.657-2.844-1.094-3.81 1.094.28 3.187 2.75 1.938 2.22 1.53 2.392 1.38 3.58-1.32 1.824-1.528zm-15.333 8.57l-.214-2.788 4.78-2.532-2.063-1.78-2.156-3.345-1.092-2-1.625.656-2.813.875-1.28.97-1.19 1.562 2.75 1.937-1.092 1.437-2.375 1.22-1.563 1.967.798 1.878 1.077-.736 2.74.088 2.563.265 2.755.325z"/><path id="GR" d="M684.343 337.91l3.386.376 3.762.847 1.223 2.822h3.762l4.14-1.787 3.104-.94 7.056-1.412 3.856-1.41 2.634-2.823.66-3.104 1.316-4.893s1.88-3.574 1.975-3.95c.094-.377.847-3.105.847-3.105l2.822-1.693 2.916-.283 2.916 1.41 2.07 3.293 1.316 2.258 1.788 1.034 1.693-1.316 2.728-2.258 2.634-2.916 1.88-1.787 2.635-.753 4.986-.188 2.35.658 1.224-3.386 1.6-2.07 2.727-3.104 2.727-2.822 3.05-.7 3.848 4.108 1.115-.608 1.825-1.318 2.027-.304 2.534.102 2.84 1.013 3.75.913 5.676.71 6.487.405 4.256 1.014 3.143 1.217 4.864 2.636 3.447 1.723.71-.61.913-1.52.202-1.925-.71-2.433 3.55-.1-.103-2.23-1.013-2.03.303-3.04 1.723-4.257 3.75-4.156 3.954-6.894 1.216-2.737 2.13-1.014 3.41-1.844c-.608-.914-1.753-1.883-2.388-2.783-.554-.788-1.183-1.916-1.592-2.788-.867-1.847-1.5-4.53-2.388-6.37-.908-1.88-2.752-4.054-3.583-5.97-.346-.798-.314-2.063-.74-2.754l2.71 1.294 3.588-.15 1.197-1.345 1.196-1.944 3.74.15 2.69 1.944.898 1.794 2.84.3 3.74-1.196 1.346-1.197 1.645-.747 3.738.897 3.74.45 3.44-1.347 8.074 1.794 5.683 3.29 7.178 1.197 5.383.6 5.385 2.69 3.59 3.59 3.887 1.794 3.59.898 6.28-2.99.6 3.29 1.494 2.69.897 3.29-1.794 2.393-1.796 6.28.897 2.394.3 4.485-.3 2.094 1.497 1.494 4.187 2.094 5.982 3.888 3.59 2.094 7.476-.898 4.188 4.487 3.888.597 5.982 3.59 2.99 5.98 2.393 2.693 4.487-.3 2.392 4.188 11.366.598 5.084-2.094 4.188-3.888 3.888-2.093 7.178.3.3-10.47 1.494-2.99.6-3.888 2.092-2.093 2.393 1.494 3.29.598h5.084l2.99-2.093.3-3.59-.6-2.692 2.095-.3 2.393-3.588 1.794-4.786.898-4.785 4.187-1.796 4.486-1.196 2.094.598 5.682 6.28.103 4.165c.48.278 1.427.033 2.057.278 1.28.498 2.114 2.555 3.378 3.096 1.167.5 3.014-.11 4.222.28.758.246 1.66.875 2.252 1.41.715.644 1.56 1.66 1.97 2.532.332.705.402 1.772.563 2.534.178.842.563 2.814.563 2.814l.176.238s-.387 1.007-.74 1.45c-.408.518-1.278.892-1.688 1.41-.586.74-1.02 1.952-1.407 2.813-.374.83-.847 1.95-1.127 2.815-.32.994-.653 2.35-.844 3.378-.127.67-.028 1.62-.283 2.252l1.12 2.484-.448 3.29.598 1.944-.3 2.393-.897 3.89-1.793 3.14-1.047 2.99.15 2.542-1.646 2.243-2.243 1.496-1.793 1.646-.45 2.243.6 3.44 1.644 2.39 1.945 3.142-.15 1.495-2.99 1.645-3.888 2.393-2.543 2.243-.598 1.645.898 2.243 1.794 1.346.748 2.243-6.58 6.28-1.346 1.646.45 6.282 1.195 1.645 1.495 5.683.898 3.14 1.794 1.197 2.84-.45 4.787-1.195 4.635 1.794 1.944 2.393 3.29 3.588.15 6.88-.9 5.233-1.644 3.44-1.047 3.74-2.692 3.738-2.692-.3-1.944-1.195-3.59-.898-5.233.45-2.843-.898-6.13-.3-2.842 1.047-7.478.15-.598-1.944-1.197-2.243-1.346-2.99-2.842-1.646-4.187-.298-1.645-.598-1.794-1.645.298-2.693 2.392-1.944-.15-3.44-.448-1.645-2.093-2.692-1.048-2.84-.45-1.347-2.69-.15-.898 1.944v1.046l-.897 1.645h-1.496l-2.54-1.046-2.244-.15-3.29.896-.897 2.094-2.544.748-1.645 1.645-3.887 1.196-1.047.597-2.69-.598-3.29.597-1.497 3.29.747 4.786-2.99 1.346-2.244 1.943-.898 3.14-4.635 4.786-.6 2.69v4.636l-.298 3.74-.897 1.644-1.795 3.44.748 5.832.748 2.392-.748 2.393-.3 4.337 2.244 3.29 1.795 3.44 1.944.448 2.842 1.346 2.243-.3 4.038-.448s1.795-.3 2.842-.747c1.046-.45 3.44-1.346 3.44-1.346l.747 1.944 1.047 2.244 2.69 2.99.748 2.244-.598 1.346-3.888 2.99-2.842 1.197-1.794 1.646-.15.598-.843 3.554-1.058 4.018-1.27 4.018.636 3.384 2.116 4.44 2.96 4.02 2.538 2.114 2.96 3.807 1.905 3.383 2.113 3.807-3.595 3.807-4.44 5.71-1.905.423-3.383-.212-3.807-1.057-3.384.212-1.693 2.327-1.057 1.268-1.27-1.48-2.114-1.48.21-3.808.636-5.287-1.058-3.807-4.652-3.172-5.5-2.327-1.69-1.057.422-4.23v-3.172l-1.48-1.904-.212-4.23 1.48-.634-.423-4.653-3.807-3.595-1.904-2.75-1.904-2.75-2.115-1.902-2.537 1.27-2.75 1.48-3.595-.847-3.383.846-2.96 1.48-1.905 1.057-2.537 1.058h-6.345l-4.018 1.27-1.692 3.17-2.538 1.693-2.327 1.48-2.326.423-4.653-2.325-3.384-2.115-3.383 2.115-1.48 2.326-.424 5.923.212 3.172-1.058 2.96-1.903 1.48-1.48-.633-4.02-.846-4.44 1.692-4.653 1.27-3.17.422-2.54-.846-4.863-.212-3.384-1.903-6.133-2.962-3.173-3.172-2.75-3.807-.845-2.75-1.692-4.865-2.75-1.903-3.595-2.326-3.383-1.904.846-2.96.423-4.865-2.75-5.71-1.056-3.595v-4.653l.423-3.385 1.692-4.44 1.056-5.71-.21-3.597-1.905-2.538-4.863-.423-1.692 1.48-2.75 3.173-.422 3.173-1.692 2.537-.422 1.058-2.75-.635-1.69-1.903-3.808-3.172v-2.75l-.212-2.96-3.595-1.27-6.133.846-5.076.846-4.653 1.904-3.17 3.384.21 3.595.635 5.287-1.058 2.327-3.383 2.114-2.327 2.116.212 4.865 7.4 6.557v9.094l.635 5.922 1.904 3.384.422 6.556-2.538 5.076-4.018 8.248-4.02 4.865-.422 7.19-.21 2.327-2.116 1.058-3.172 2.538-.423 2.326-1.904 2.96-1.48 1.27-2.328 4.017-.634 3.384-.212 2.75-5.038.892-3.88-3.703-4.14-5.833-3.573-3.387-4.892-3.574-.752-3.763.753-5.08-1.88-5.08-3.01-5.08-1.318-3.574 1.693-3.01 1.693-4.892-.187-5.268 1.13-3.01 2.256-1.882 2.07-3.386-1.13-5.832.188-4.327 1.505-3.95.565-3.01-2.822-3.388-.753-3.386 1.88-3.764.472-5.268-3.293-3.668-3.48-1.13-2.164-.187-3.292-3.293-2.446-3.668-2.728-6.21-.376-4.984.847-7.244 2.163-1.6 3.01-3.197-.564-2.07-1.035-.564-3.857-.94-3.104-4.046-1.88-1.88-4.516 1.316-3.763-.376-.565-2.352-.376-3.198-.47-4.704-.565-3.198-.657.753-1.693 1.223-5.927.47-3.292 2.635-1.128 2.446 1.976 4.045.846 1.694-.094 2.633-2.54 2.445-2.728 1.882-2.728 1.223-3.856.658-3.857 1.036h-1.975l-1.505-.847-3.762 2.82-3.387-.563-3.29-1.882-2.26-1.222-4.608-.847-3.575.753-3.613-.166-4.124-1.862-3.925-.882 1.315-6.216-3.387-5.08-2.822-3.762v-6.21l2.447-3.385 1.882-1.13-2.07-4.514-.377-2.258 1.693-3.575 2.822-1.693 5.08-.188 3.386-3.576 4.14-2.257 1.504-5.08.565-2.634 3.386-.376 1.88 3.198 3.575.188 2.822-2.633.94-4.328 3.2-3.198 1.504-4.327-1.316-4.89 2.07-1.695 2.822-1.317 2.822-.376 4.092-4.163"/><path id="AG" d="M581.528 89.076l-1.305 2.058.646.743-.26 3.878-2.326 5.945-4.136 4.137-3.36 2.843v4.136l-1.81 3.36-2.068 6.464 1.81 5.428 1.55 1.293.388 1.68.517 2.845.905 5.04.258.905 2.198 1.034 3.62 2.07.645 3.1-.775 1.81-6.075 7.238.388 2.198 6.85 3.62-.574 2.584.473 7.77 1.71 2.08 1.37 1.12 2.722.5 1.974-2.797.957.445-1.76 3.018-1.76 3.186-2.378 2.65-2.376 1.098-3.286.658c.406.705 1.273 1.707 1.622 2.423.433.888.82 2.156 1.126 3.096.19.586.373 1.387.563 1.972.305.94.91 2.13 1.126 3.096.204.91.475 2.184.282 3.096-.18.85-1.034 1.748-1.407 2.534-.39.82-1.15 1.905-1.125 2.814.03 1.21 1.223 2.544 1.69 3.66.277.665.687 1.547.843 2.252.238 1.075.24 2.56.28 3.66.047 1.18-.17 2.77 0 3.94.13.872.633 1.96.846 2.814.208.836.283 2 .563 2.815.245.715 1.11 1.497 1.126 2.252.02.832-.9 1.733-1.126 2.533-.348 1.23-.176 3.005-.576 4.193l-4.93 1.46-5.397 1.323-2.313.33-1.543-2.533-2.093-4.186-1.983-4.187-2.202-5.84-.77-4.515-1.764-5.288-2.093-6.83-.99-4.628-.22-3.305-.662-2.092-.66-.44-4.297-1.212-.99-1.763-3.416-.77-2.203.11-4.516 5.838-2.534 1.433-.992 2.644-.77 3.966-.33 2.424-1.103 2.203-1.873 1.542-1.983.33-2.314-.66-1.763-1.543-.22-1.323v-1.542l2.534-1.212-.33-1.432-1.764.442-5.067.55-5.288.44-2.644-.55-.11-2.864-.882-2.203-.33-.55-1.653-.332-2.535-.55-2.533.77-1.212.882-.55 2.203-.772 2.314-2.644.77-2.534.22-2.864-.22h-1.873l.22-1.21.22-3.746v-2.755l-.66-1.982-1.543-2.864-1.762.66-2.975.882H482.31l-1.322-1.21-1.322-.222-.11 2.093v8.704l-.55 1.102-.882.992-1.322.77-3.966-.22-1.873-.88-3.304-.44-4.297.55-1.984.55-1.983 1.322-4.192.34-.434-3.48-.055-5.453.773-3.305.48-1.102c.828-.295 1.574-1.378 2.136-2.098.842-1.08 1.69-2.713 2.348-3.913.38-.69.713-1.71 1.174-2.35.534-.74 1.635-1.398 2.152-2.15.328-.478.434-1.3.783-1.762.553-.732 1.768-1.247 2.348-1.957.55-.67 1.25-1.685 1.37-2.544.15-1.072-.915-2.448-.783-3.522.08-.652.694-1.366.888-2.012l1.865 1.322 1.928 1.542 2.368.937 3.03.66 5.84.495 3.8.276 1.653-.275 1.267-.495 1.212-1.763.99-3.47 1.93-5.453 1.872-3.8 1.928-4.518-.44-2.148-2.755-2.644-2.37-.386-1.816-.826-2.037-1.212-3.25-1.763-1.873-1.817 2.424-1.432-.11-2.59-.717-3.03-1.597-.44-.716-2.368-.055-1.763-2.15-.22-1.074-.193-2.726-1.79-.55-3.525.22-2.315-2.865-.33-2.424-.11-1.872-1.102-2.423-3.195-1.102-4.076-3.085-5.51-2.533-3.414-2.094-2.644-.99-1.212-1.653-1.1-1.542-.11-1.432.88-.77 1.432-.552 2.424-.55 1.983-.77 2.424-2.204 2.094-2.314 1.652-3.415.22-.22-2.313.33-1.542-.66-1.212-1.543-.77-3.25-2.866-2.864-1.487-2.92-1.047-.292-1.632c.765-.178 1.9-.36 2.742-.543 1.102-.237 2.584-.507 3.66-.844.867-.272 1.954-.832 2.814-1.126 1.164-.398 2.795-.68 3.94-1.126.88-.34 2.066-.832 2.816-1.406.807-.62 1.73-1.66 2.252-2.534.506-.85.762-2.177 1.126-3.096.236-.598.483-1.438.844-1.97.2-.297.513-.708.844-.845.39-.162.997-.098 1.408 0 .735.173 1.53.9 2.252 1.125.57.178 1.373.288 1.97.28.514-.004 1.194-.142 1.69-.28.437-.123 1-.36 1.406-.563.44-.22.94-.687 1.408-.844.724-.245 1.77-.303 2.533-.282.514.014 1.205.11 1.69.282.64.228 1.488.644 1.97 1.126.48.48.822 1.36 1.125 1.97.287.576.6 1.376.845 1.97.174.42.445.968.563 1.408.154.577.157 1.386.28 1.97.13.6.282 1.424.564 1.97.248.48.692 1.086 1.126 1.408.73.542 2.093.573 2.815 1.126.336.257.45.98.845 1.126.73.27 1.89-.123 2.534-.563.5-.345.78-1.19 1.125-1.69.412-.598.76-1.638 1.407-1.97.676-.348 1.774-.032 2.533 0 1.016.042 2.365.196 3.378.28 1.013.085 2.4.008 3.378.282.546.153 1.148.68 1.69.845.65.197 1.572.24 2.252.28 1.095.07 2.57.135 3.66 0 .69-.084 1.627-.253 2.25-.562.485-.24.986-.788 1.408-1.126.422-.338 1.025-.744 1.408-1.126.382-.383.67-1.116 1.126-1.408.293-.188.78-.333 1.125-.28.486.07.998.568 1.407.843.35.235.725.71 1.126.844.8.267 1.97 0 2.815 0 .337 0 .832.166 1.125 0 .43-.243.608-.976.845-1.408.273-.496.714-1.137.844-1.69.136-.574 0-1.378 0-1.97 0-.168-.057-.403 0-.562.225-.62.81-1.41 1.408-1.69.382-.178.988.053 1.407 0 .69-.084 1.6-.32 2.252-.562.176-.065.406-.176.562-.28.842-.572 1.756-1.598 2.533-2.253.414-.35.898-.948 1.408-1.127.717-.252 1.78.093 2.533 0 .346-.043.8-.16 1.126-.282.708-.26 1.576-.787 2.252-1.125.507-.253 1.334-.402 1.69-.844.217-.27.102-.826.28-1.125.645-1.077 2.107-2.042 3.097-2.815.48-.375 1.24-.714 1.69-1.126.398-.365.62-1.214 1.125-1.407.48-.184 1.276-.024 1.69.28.303.226.317.84.562 1.127.472.553 1.31 1.103 1.97 1.408.317.146.78.24 1.127.28.335.042.79.03 1.125 0 .94-.084 2.155-.477 3.096-.562.588-.053 1.387-.094 1.97 0 .527.086 1.162.478 1.69.563.75.122 1.778-.093 2.532 0 .69.085 1.693.15 2.252.563.396.293.69.94.845 1.408.267.805-.082 2.047.28 2.814.46.972 1.774 1.774 2.534 2.534.928.93 1.407 2.814 3.096 3.096 1.69.28 1.36 1.013 1.97 1.407.985.638 2.252 1.97 3.378 1.97 1.126 0 2.552.48 3.66.564 1.01.076 2.364 0 3.377 0 .93 0 2.365.57 3.097 0 .275-.216.11-.824.282-1.127.352-.624 1.026-1.415 1.688-1.69.312-.128.794-.063 1.126 0 .446.087.98.367 1.394.553z"/><path id="TG" d="M696.473 63.903s-1.456.76-2.34.976c-.824.2-1.97.357-2.814.28-.614-.054-1.41-.31-1.972-.562-1.004-.452-2.095-1.512-3.096-1.97-.802-.367-1.974-.58-2.815-.845-.763-.242-1.833-.454-2.533-.844-.576-.322-1.185-.983-1.69-1.41-.594-.5-1.37-1.19-1.97-1.688-.416-.344-.98-.794-1.407-1.126-.334-.258-.744-.663-1.126-.844-.627-.3-1.555-.52-2.25-.563-.68-.042-1.573.238-2.252.28-.843.053-1.978.113-2.815 0-.954-.127-2.19-.52-3.096-.844-.784-.28-1.828-.687-2.534-1.126-.56-.348-1.086-1.14-1.69-1.407-.544-.243-1.385-.157-1.97-.282-.6-.127-1.39-.356-1.97-.562-.605-.215-1.37-.616-1.97-.844-.25-.095-.58-.25-.844-.282-1.094-.134-2.566.162-3.66.282-.594.065-1.386.4-1.97.28-.484-.096-.944-.678-1.408-.843-.563-.2-1.397-.448-1.97-.28-.748.217-1.305 1.285-1.97 1.688-.39.236-1 .36-1.408.563-.442.22-.92.906-1.426.818l-2.05 2.8-.443 1.857 1.502 3.36 1.858 2.892 1.813 1 2 1.125 4.375.875 4.187.125 2.938-1.875 1.562-1.625 1-.75 1-1.5.563-1.063.562.187 3.875.437v.938l2.5 1.25 3.063 1.125 2.812.812.688.874-4.25 7.75-3.938 5.438-1.97-1.25.126-.813-4.686-.75-2.594.156-1.156 1-.22 1.843.378 1.416.85 2.508c.8.057 1.756-.65 2.533-.844.5-.124 1.176-.302 1.69-.282 1.39.056 3.213.6 4.484 1.12l.297 4.304 2.917 1.945 3.778 1.162 2.823 2.544 1.25 1.625-.25 1-3.625.124.5 2.625 1 2.25 1.625 1 2.625-.126 2-.625 2.375 1.25 4.375 2 .625 3.5-1.125 6.374-1.75 4-.625 4.25 2.607 4.873-.177 2.917 1.06 2.917 1.77 1.592 1.413 1.15-2.74.97-1.238 3.27-1.78 2.82c1.607.243 3.692.932 5.176 1.593.636.284 1.358.904 1.99 1.195 1.03.473 2.57.687 3.583 1.194.843.422 2.093 3.793 2.078 6.532l1.943-1.07 1.363-1.79 1.218-.503.623-2.095 1.115-3.244 2.027-1.723.913-4.966 1.115-1.52 5.17-.61h3.953l1.317-2.23.507-4.054-1.52-1.013-3.852-3.04-1.825-1.32-1.926-3.344.102-2.433 1.722-1.825 3.852-.912 2.838-1.318 2.94.507 4.46 2.13 1.926 2.026 2.94 1.723 5.372-.505 2.736-.913 3.65-3.446 1.115-3.244 3.75 3.143 2.23.608 1.522.1.71 1.826 1.418 1.52 4.36-.406 2.026 1.216 3.75 2.636 3.346.304 2.838-1.217 4.156-1.622 4.156-.505 2.84-1.217-.407-2.128-.912-4.36-2.534-2.94-2.637.204-1.622.81-2.837-.607.203-1.217 1.115-.507 2.13-1.115 1.216-2.128 2.23-.406 2.94-.507 2.635-.304 1.116-1.115 2.737 1.52-1.216 2.434 1.723.405-.913 1.926-.304.304 2.84 2.534 2.33.407 2.636 3.65.505 2.533 3.04.912 1.623.61.71-3.245 1.013-3.447 3.144-1.317 2.94-2.737 1.62-1.318 11.61-16.132-49.722-28.12-14.37-.283-4.473.132-3.44-.897-2.842-.898-.598-1.645-2.094-.747-7.028-3.29-16.15-2.243-5.834 2.093-15.66 8.315zm120.435 46.25l-.406 1.62-1.52 3.143-2.737 2.13-2.534-.508-2.128-1.824.1-2.94 1.725-3.142 2.23-1.622 2.433.912 2.838 2.23z"/><path id="TI" d="M640.418 413.354l-1.51 2.632-3.01 2.54-4.327.282-1.128-1.693-2.634-1.13-7.43-.75-2.07-1.506-4.328-1.036-5.268 1.035-3.292 3.197-1.41 3.386.657 4.233-.282 2.54-1.223 1.505-5.018 1.65-3.745.224-1.586 3.357-3.66 3.35-.936 2.65-1.246 2.26-1.558.466-3.04-.31h-3.894l-2.025-.547.234 4.284-.08 2.882-1.584 6.337 6.146-2.953 5.075-.846 4.23 1.48 3.384 6.345.424 2.748-.423 5.5v12.477l.635 7.19-.846 5.5-2.75 5.286-2.96 3.597-.847 4.864 3.596 4.865 1.267 3.807-.423 2.115.846 2.96 4.653 4.02 5.922 3.383 5.922 3.172 3.383 5.076 5.71 8.46 3.384 3.172.423 3.807 4.22 4.45 1.943 4.038 2.393.3 2.99.597 2.095 1.795 2.84 1.645 3.89.45 2.242 1.644 1.71.813 2.926 1.28 5.683-4.936 3.47 2.388 3.11 1.65 2.99 2.542 1.645-.897 2.243-1.944 1.047-1.196 1.495.448 5.085 5.234 3.59 4.336 2.093 2.99.3 3.14-1.945 2.095-1.645 1.197-.79.2-.21 1.587-.53 3.595-1.585 1.374-4.02 2.538-2.537 2.22-.95 2.644 1.268 2.75h1.374l2.75.422 3.7 1.375 2.433 2.644 3.067 2.643 2.433 2.644 2.167.502 2.274 1.296.424 2.855.423 5.393 2.75 3.912 1.682 2.215 1.277 1.592v2.114l1.692 4.44 2.96 4.865-.423 2.75-2.75 2.537-2.537 4.018v2.115l1.48.21 2.538-2.537 3.384.212 2.538 2.538 2.96.634 3.173-.21 1.903.845.423 3.172 2.748.846 3.807-1.903.846-5.076.636-2.96 1.692-3.595 1.057-4.23 3.172-2.115 2.115-2.326.846-2.96-.846-.636s-2.326-2.96-3.172-4.018c-.846-1.057-3.384-2.538-3.384-2.538h-4.44l-2.116-1.692-.635-2.326.423-3.172-1.48-2.538-1.692-2.115-1.27-3.597-.422-1.69 1.48-1.905 1.904-1.903 2.326-.635.053-2.167-.264-5.235-1.058-1.27-1.268-2.537.21-4.228 1.693-4.442 2.326-1.48 4.02-1.48 4.228-1.48 1.904-1.27 1.48-2.326.846-3.173-.21-3.382-1.693-3.596-.634-2.538 1.48-3.595 6.134-2.54 4.23-4.017 2.538-2.538 1.903-.846 2.116-3.596 2.152-1.012-3.88-3.703-4.14-5.833-3.573-3.387-4.892-3.574-.752-3.763.753-5.08-1.88-5.08-3.01-5.08-1.318-3.574 1.693-3.01 1.693-4.892-.187-5.268 1.13-3.01 2.256-1.882 2.07-3.386-1.13-5.832.188-4.327 1.505-3.95.565-3.01-2.822-3.388-.753-3.386 1.88-3.764.472-5.268-3.293-3.668-3.48-1.13-2.164-.187-3.292-3.293-2.446-3.668-2.728-6.21-.376-4.984.847-7.244 2.163-1.6 3.01-3.197-.564-2.07-1.035-.564-3.857-.94-3.104-4.046-1.88-1.88-4.516 1.316-3.763-.376-.565-2.352-.376-3.198-.47-4.704-.565-3.198-.657.753-1.693 1.223-5.927.47-3.292 2.635-1.128 2.446 1.976 4.045.846 1.694-.094 2.633-2.54 2.445-2.728 1.882-2.728 1.223-3.856.658-3.857 1.036h-1.975l-1.505-.847-3.762 2.82-3.387-.563-3.29-1.882-2.26-1.222-4.608-.847-3.575.753-3.613-.166-4.124-1.862-3.922-.888zm66.166 193.8l1.058 1.06L708.7 608l.845-1.056.846-1.27-.21-1.585-.846-.318-1.692 1.69-1.058 1.693z"/><path id="VD" d="M272.333 280.07l5.206 2.637 3.888 1.238.765.417-.94 3.825v5.48l1.236 1.59 4.42 7.78 2.827 5.833-3.005 2.652-3.713 2.828-.53 5.304-1.592 3.358-3.005 2.83-1.768 2.12-1.944-1.237 1.592-4.066-.177-4.95-2.475-1.77-2.298-2.474-4.066-3.358-1.59-4.243-1.238-4.773-3.182-1.59-.177-.178-6.05-4.99v-.007l17.813-14.257zm-56.842 77.767l-1.944 3.182.53 2.828 2.3 1.768 1.766-1.59.884-3.537-.176-3.006-3.36.353zm12.022 1.768l3.89-4.95 2.12-3.712-.707-1.59 1.59-.885 2.3 3.005 3.18 3.182 1.062 1.59-2.83 5.305-1.943 3.005-2.122-.354-2.298-2.297-4.242-2.298zm-3.182.884l2.65.353 2.3 1.59-1.945 2.83-2.298 1.06-1.06-1.59.353-4.244zM88.75 490.773l5.88 3.387-6.228 12.22-.687-.346-4.453-2.71-5.127-3.005-4.18-2.778-1.203-.044 2.75-4.652 2.537-4.02.21-4.017-1.48-3.385-6.556-6.767-6.767-4.865-4.865-3.172 2.115-3.594.846-4.23-.423-7.402 2.538-4.44 3.595-5.5 2.96-4.44 2.75-2.962 3.807-3.173-1.268-5.922-2.115-2.75-5.71-6.344 2.537-3.596 4.865-4.44 10.15-9.306 12.69-11.632 4.23-4.442 4.44-4.018 5.076-2.115 10.152-6.767 7.402-6.768.634-2.75 1.904-1.057 4.864-1.057 3.595-2.115 2.96-3.17 2.962-4.23-1.27-3.174-3.384-1.692-1.48-1.69-.846-2.116 2.115-1.48.423-5.076.21-2.327 2.116-1.903 3.24-3.775 16.43-2.33 9.194-6.012 5.656-2.65 7.78-2.123 3.71-4.773 6.542-4.243 5.303-4.95 3.18-1.238 2.3 5.48-1.415 4.065 3.182 1.945.707 7.248 2.652 1.944 2.5 7.817.5 11.13 1.95 1.558 4.065 3.006-1.59 1.06 4.596 3.36 4.95 2.12 2.12.354 2.3-1.238 2.298-2.474 2.828 1.767 3.89 1.59h3.004l2.122-2.12 1.06-3.89v-3.888l.884-2.298-1.237-.707-1.768.176-.53 1.768-2.475-.177 1.768-4.773.176-1.944 2.298-5.48 2.652-2.298-3.36-5.127-3.357 1.414-.178-1.06 5.126-2.83-2.475-2.65-2.12.175-5.216-4.726 7.652-6.298 5.34 7.488 4.773 5.303 4.066 3.36 2.12.883v5.303l1.59 3.535-.175 6.187-4.066 3.005-.885 4.243-1.59 5.657-2.476 2.828-4.42 4.95-.884 2.65 2.65 2.3-.53 3.712-8.307 10.253-6.19 6.717-.352 4.597-1.414 2.65-3.36.178-1.59-1.414-2.12-.177-2.653 1.946-3.535 3.358-1.59.53v6.188l.883 5.657v8.838l.707 2.12 3.182-1.413 1.768-.707 1.414 2.474 3.358-1.767 2.83-.53 3.18 2.828 3.183 1.414 3.006.707 1.462 1.11-.932 1.542-3.005 2.65-1.767 2.476-1.237 1.59-1.59.178-.885 1.768.178 2.65-3.536-1.06-3.182-3.004-3.89-.177-.883 2.298-.53 3.005 3.005 1.945.884 1.944 1.59 3.358 3.536.53 3.89-2.12 1.944-3.006 3.89-3.36 1.413.53 2.474 2.476 4.42 3.89 4.065 1.944 4.596 1.237.353 3.712 1.59 6.894 1.238 5.126-.707 2.122 4.243-1.415 3.182-2.652s3.182-3.712 3.005-4.596c-.176-.884 3.182-4.42 3.182-4.42l3.36-3.182 3.71-.884 6.19-.707 3.71-2.3 4.067-4.418 2.65-4.243 3.36-1.77 2.828-1.59 3.358-2.828 3.713 1.944 6.596-3.45 1.18 4.158.708 6.187.353 5.658-2.298 3.358-3.183 4.066s.707 4.243.53 5.303c-.176 1.06 0 4.42 0 4.42s-1.767 1.944-2.474 2.475c-.707.53-3.712.53-3.712.53l-1.237 1.59.177 3.537 2.12 3.005.178 3.36-1.768 3.18v7.425l3.36 3.005-.178 2.83 1.414 6.363-1.075 2.876-4.227 2.958-2.828 2.652 2.12 4.596-1.767 3.182-1.944 3.713-3.89 5.657-4.772 4.42-6.01 5.833-5.48 4.42-7.174 4.335-5.79 4.15-.672.665c-.702-2.04-2.227-4.55-2.767-6.64-.19-.73-.178-1.747-.278-2.492-.213-1.583-.23-3.778-.83-5.258-.65-1.6-2.315-3.3-3.32-4.705-.66-.918-1.4-2.262-2.215-3.044-.432-.413-1.264-.657-1.66-1.106-.738-.835-1.22-2.297-1.66-3.32-.385-.893-.94-2.088-1.108-3.045-.174-.982 0-2.325 0-3.322 0-.747.108-1.75 0-2.49-.127-.858-.524-1.957-.83-2.768-.422-1.112-1.147-2.526-1.66-3.597-.404-.837-.872-1.995-1.385-2.768-.424-.638-1.247-1.293-1.66-1.937-.643-1-1.026-2.593-1.66-3.598-.694-1.096-1.804-2.454-2.768-3.32-.668-.6-1.917-.97-2.49-1.66-.405-.487-.585-1.356-.83-1.938-.422-.994-1.046-2.297-1.385-3.32-.215-.65-.216-1.62-.554-2.215-.404-.715-1.375-1.337-1.937-1.937-.602-.645-1.388-1.522-1.936-2.214-.338-.427-1.054-1.476-1.127-1.596l-3.344-8.066-13.424-1.05-33.62-7.417-34.26 1.692-37.223 13.323-17.756 14.6-7.14-3.103-5.297-2.99-4.772-1.413-1.06 4.065 2.475 1.06 3.89 1.77-.355 3.18 2.652 1.06"/><path id="VS" d="M575.026 455.193l1.585-6.337.08-2.882-.235-4.285 2.025.545h3.895l3.04.31 1.557-.466 1.246-2.26.935-2.65 3.66-3.35 1.635-3.356-2.803-.46-2.26-1.246-2.258-1.324-1.324-1.948-1.168-2.726-.935-2.18-2.493-4.052-.935-2.026 1.714-4.985 2.18-5.687.546-10.672-.31-2.337-2.267-1.456-1.79-.486-3.89 4.358-2.493 3.427-2.337 4.05-1.246 5.61v5.297l-.78 3.116-3.583 3.272-3.116 2.18-3.583 1.87-1.402 2.338-7.478 4.674-4.83 1.713-10.283 2.65-5.297.934-3.583-3.428-6.388-1.247-5.92-3.895-4.52-1.714-3.893.312-4.986-2.337-3.74-2.027-3.115.156-2.805 1.87-3.895 2.024-4.362 1.714-.78 9.97-7.01 3.428-2.18 2.96-5.298 4.363-5.765.934-9.503.467-12.932 11.22-14.8 12.15-4.52-6.854-7.79-5.61-5.607-1.09-2.65 2.65-2.18 4.05-2.96 3.74-4.986-.157h-4.52l-2.336 1.246-1.87 1.87 4.518 2.96-1.09 1.713-2.65 2.804-4.205 2.025-4.363 1.4-8.1-2.647-4.83-1.09s-7.947 2.024-8.57 2.336c-.623.31-6.7 4.984-6.7 4.984l-4.517 3.116-4.518 2.805-2.806-1.09-1.402-2.182v-6.388l-4.05-.78-3.896 2.494-2.648 2.024-.78 4.363-1.246 3.895-2.96 2.025-5.854-.128-4.225 2.948-2.828 2.652 2.12 4.596-1.767 3.182-1.944 3.713-3.89 5.657-4.772 4.42-6.01 5.833-5.48 4.42-7.174 4.335-5.79 4.15-.672.665c-.702-2.04-2.227-4.55-2.767-6.64-.19-.73-.178-1.747-.278-2.492-.213-1.583-.23-3.778-.83-5.258-.65-1.6-2.315-3.3-3.32-4.705-.66-.918-1.4-2.262-2.215-3.044-.432-.413-1.264-.657-1.66-1.106-.738-.835-1.22-2.297-1.66-3.32-.385-.893-.94-2.088-1.108-3.045-.174-.982 0-2.325 0-3.322 0-.747.108-1.75 0-2.49-.127-.858-.524-1.957-.83-2.768-.422-1.112-1.147-2.526-1.66-3.597-.404-.837-.872-1.995-1.385-2.768-.424-.638-1.247-1.293-1.66-1.937-.643-1-1.026-2.593-1.66-3.598-.694-1.096-1.804-2.454-2.768-3.32-.668-.6-1.917-.97-2.49-1.66-.405-.487-.585-1.356-.83-1.938-.422-.994-1.046-2.297-1.385-3.32-.215-.65-.216-1.62-.554-2.215-.404-.715-1.375-1.337-1.937-1.937-.602-.645-1.388-1.522-1.936-2.214-.338-.427-1.054-1.476-1.127-1.596l-3.344-8.066-13.47-1.015.9 8.62.846 5.5-1.48 2.537-2.327 2.326-4.02 1.27.847 2.114 2.538 3.172 1.692 3.595 1.27 1.903 1.69.423 3.596 2.54 1.48 2.114 1.48 1.903 2.962.846 1.903 2.75v5.075l-.845 4.653-2.75 4.654-4.23 5.71-2.96 5.922.635 5.287.423 5.71-3.596 2.115-2.96 4.23-.846 2.326 2.115 1.692 2.327 2.75 5.71-.212 2.96-.423 2.962-.422 4.23 1.692 5.075 1.27 1.69 2.96-1.48 2.537.635 6.134-.423 3.173-2.115 1.692-.634 4.653.21 2.96 2.54-.423 1.48-1.69 1.48-2.962.635-1.48 3.595-.212 1.903.635 1.904 3.807 1.903.635 2.75 4.018 3.595 5.922 4.652 5.71 3.384 6.133 1.058 4.44-1.48 4.02 3.383.845 3.384.846.422 4.866v4.652l2.75 2.96s3.383 4.865 4.44 6.134c1.058 1.27 2.327 4.02 2.327 4.02l2.325 3.805 1.48 4.23.847 1.904 1.692-.21 2.115-4.02 2.536-2.748 4.865-.423 4.23 3.382 2.327 2.96 1.903.424v-4.44l.212-2.75 2.538-2.327h2.75l3.806-.424 2.313-.34 2.99-.597 1.794-1.795 2.393-3.59 1.196-2.69 4.508.648 5.064 1.145 4.012-.21 4.363 1.706 3.887 1.794 1.794-1.495 1.796-.897 2.692-.6 1.495-2.99 3.888-1.794 4.787-2.692 2.093-.897-.598-.897 1.496-4.487 2.093-.3 2.095-1.495 2.094-.898 3.588-.598h2.69l2.693-1.795-.597-2.393 1.795-3.59 1.59-.402 1.904-.846 3.172 1.48 3.384 3.807 3.807.636 6.133-1.058 5.076.635 2.96 1.903 1.48 1.903 2.962 2.114 3.384 2.115 1.27 5.286 1.69.846 1.058-.423 4.864-2.327 3.173-.21 4.23 1.267 4.652 4.442 4.018-2.75 4.442.846 3.806.212 2.75-1.48v-1.058l-.635-7.614 1.27-4.652 4.018-4.442 4.23-2.75 17.34-1.056 2.75-2.538 2.54-5.288 2.114-4.652 2.96-2.538-1.903-3.595.212-8.037 1.267-2.115 3.807-3.595 5.71-2.96 4.442-.424h3.807l.634-2.96 2.115-3.596 3.172-2.75 2.96-.846.213-1.69-.846-4.654 3.173-2.96-.635-4.02-2.326-2.326-1.48-5.075-.423-3.808-3.174-4.442-4.018-3.383-5.5-2.75.424-3.595 2.96-2.75 3.596-5.498 3.384-3.384 3.173-1.27 3.806.424 3.808 1.48 4.02-1.057 4.65-5.922 1.905-3.172V492l1.903-1.48 3.807-1.27 2.326-3.806 3.383-2.115 7.614-3.174 1.692-3.384-1.06-2.96-3.383-.846-2.538-2.327 1.057-4.23 1.903-2.538 4.442-1.058 4.864-3.384 8.87-4.237z"/><path id="NE" d="M284.856 260.623s-1.604.335-2.307.43c-.695.095-1.643.06-2.327.212-.725.162-1.654.53-2.327.846-.798.375-1.79 1.015-2.537 1.482-.778.484-1.832 1.11-2.54 1.692-.624.512-1.44 1.24-1.903 1.903-.52.745-.875 1.93-1.27 2.75-.367.767-.9 1.77-1.268 2.537-.394.82-1.27 2.75-1.27 2.727l5.187 4.838-17.746 14.264-7.67 6.558-7.602 6.283-24.312 18.286-2.48-7.898-2.652-1.944-.707-7.248-3.182-1.945 1.414-4.065-2.3-5.48-3.18 1.237-5.304 4.95-6.54 4.242-3.713 4.772-7.78 2.122-5.655 2.65-9.193 6.012-16.432 2.33c.717-3.09.145-6.8.145-6.8l.634-6.132-2.538-2.326-2.75-3.807-2.537-3.17 3.807-5.712 5.71-6.344 3.172-3.384 1.692.423 2.75-1.058 4.653-1.69 5.71-2.116 6.134-2.328 2.75-1.48 5.71-.212 1.903-1.27 2.96-4.65 2.962-5.923 3.382-1.903 2.538-.212 2.538-1.057.212-1.904-.635-1.902-2.538-.846v-1.904l.846-1.903h3.384l1.057-1.692.846-1.692.423-2.96 1.058-.846 3.808.212 3.383-.846.847-1.903-1.903-4.02.95-.274c.604-.38 1.43-.88 1.936-1.384.505-.506.86-1.453 1.384-1.938.356-.328.912-.72 1.384-.83 1.053-.25 2.556.572 3.597.277 1.087-.31 2.118-1.57 3.044-2.215 1.228-.856 2.955-1.868 4.15-2.768 1.13-.85 2.546-2.1 3.598-3.044 1.792-1.608 4.863-3.322 5.805-5.477l4.63-.08 2.57 2.777 1.714 3.73.467 5.92-1.09 4.206-2.182 2.803.623 3.74 3.584-1.558 3.426-1.558 4.363-2.182 5.14-2.492 8.413-1.09 5.92-.157 1.714 1.09 7.01 3.74 6.545 4.362.935 3.272-.312 3.74-.935 4.83-2.904 1.373z"/><path id="GE" d="M91.214 484.048l7.137 3.094-3.72 7.02-5.884-3.388-2.656-1.06.354-3.183-3.89-1.767-2.474-1.06 1.06-4.066 4.773 1.414 5.3 2.998zm-17.258 13.494l-1.204-.044-2.538 2.327-.634 5.287-1.27 1.48-1.48 2.96v3.385l1.692 2.115.212 3.595-1.058 2.115-2.326 1.058-3.595 1.27s-2.538.21-3.807.633l-1.903.635-1.904 1.69-2.114.213-3.172-.21-1.48-.212-1.904.634-1.48 1.692-1.27 1.904-1.057 1.48-2.75.635-2.114 3.383-.635 1.904 1.903 1.057 1.903.635.636 1.48-.212 3.595-1.27 3.173-1.48 3.384-.422 2.326 4.23-.21 4.23.844 4.23 1.058 1.903-3.172 1.692-1.48 1.48-.212 2.75.846 4.652.21 3.806.847 3.384.424 2.326-1.057 1.904-1.692 2.96-1.692 2.75-1.27 2.75-1.903 2.96-3.383 2.538-2.96 2.96-3.385 2.116-2.115 3.383-.846 2.96-1.48 3.597-1.48 2.96-1.48 1.692-2.538 1.48-1.692-.21-2.538-.212-1.903-1.904-1.06h-1.27l-.42 1.27-1.905.635h-2.96L98.13 517.8l-3.17-2.325-1.924-3.97-4.634-5.124-.687-.346-4.453-2.71-5.127-3.005-4.18-2.778z"/><path id="JU" d="M344.1 134.65c-1.78-.225-4.148.062-5.935.19-1.08.078-2.52.196-3.583.4-.67.126-1.53.424-2.19.596-.714.187-1.684.374-2.388.597-.793.25-1.84.63-2.587.995-.626.305-1.46.745-1.99 1.194-.42.356-.87.95-1.286 1.48l-3.31-1.923-1.693-2.328-4.23.423-4.23-1.903-4.018-1.27-1.27-1.056v-4.23l1.48-3.384 2.115-3.172v-3.384l-3.172 1.27-3.384-1.06-1.693-2.114-3.172-2.326h-2.96l-3.596 1.48-4.02 1.904-5.92-1.27-5.288-1.268-3.596-1.692-5.287.423-2.116 1.27-1.057 1.902-.635 2.75 2.538 4.018 1.48 3.807-1.057 2.115-2.96.846-3.596 2.54-1.904 1.69-2.537.635-1.27 1.903-1.057 4.653-1.693.847-2.538 2.115-.635 4.018-2.75 2.538-1.268 3.172.846 4.02 9.305.422 4.018.21 3.807-1.48 3.173-1.48 4.652-1.27 4.653.424 1.905 1.692 2.326 2.327 2.54 4.652-1.482 1.692-.21 2.114-1.27 2.115-4.44 1.057-2.328 2.114-1.27 2.962-.498 2.68c-.386.2-2.024 1.21-2.517 1.528-.596.384-1.516.704-2.214.83-.734.133-1.78-.236-2.49 0-.787.263-1.507 1.224-2.214 1.66-.473.293-1.125.676-1.66.83-.802.233-2.116-.243-2.767.278-.207.163-.236.57-.278.83-.053.328-.127.8 0 1.107.224.542 1.16.84 1.383 1.383.477 1.15.052 2.907 0 4.152-.04.998-.297 2.32-.276 3.32.013.67.29 1.545.275 2.214-.01.505-.01 1.232-.276 1.66-.38.607-1.412.902-1.938 1.385-.565.515-1.113 1.402-1.66 1.936-1.227 1.194-3.05 2.582-4.43 3.597-1.204.888-3.047 1.756-4.15 2.768-1.175 1.078-2.432 2.827-3.32 4.152-.477.71-.925 1.77-1.384 2.49-.608.952-1.353 2.315-2.214 3.045-.567.48-1.492.936-2.214 1.107-.485.114-1.2-.19-1.66 0-.543.224-1.384.796-1.384 1.383s.808 1.266 1.383 1.384c.437.09.993-.772 1.383-.552.44.247.235 1.157.277 1.66.04.496.196 1.203-.007 1.718l4.63-.08 2.53 2.738 5.804-.672 3.272-2.103 4.75-4.208 2.727-2.65 5.92.625 3.117-.312 1.558-2.493.31-2.493 5.922-.935 3.74-4.986 3.115-6.856.622-3.428 7.478 1.558 13.087-.934-1.246-6.544 3.74-2.18-.31-4.364 1.557-3.427 3.74-.623h4.05l3.115 3.427 5.92 1.246 7.168-.312 6.232-1.246 5.297-2.805 5.296-4.362 3.74-4.985 1.557.624.935 4.984 4.362-.31 9.036.933 5.298.623 6.232 2.182 3.427-2.493 3.116-3.74h6.543l2.163.266.33-2.837-6.778.077-.7-1.558-1.48-3.584-.39-3.038v-4.44l-4.363-.468-5.453 1.402-6.232-1.402-2.92-4.81-1.832.292-2.92-.546-1.598-2.414-5.22-4.674-1.09-1.948-.378-2.065-5.62-.506-4.13-3.818.097-2.84z"/></g><g id="International_borders"><path d="M837.992 113.378l-7.866-15.02-61.164-34.993-14.37-.282-4.473.132-3.44-.897-2.842-.898-.598-1.645-2.094-.747-7.028-3.29-16.15-2.243-5.834 2.093-15.668 8.308" id="path3629"/><path d="M716.577 602.133l-.264-5.235" id="path3642"/><path d="M716.313 596.898l-1.058-1.27-1.268-2.537.21-4.228 1.693-4.442 2.326-1.48 4.02-1.48 4.228-1.48 1.904-1.27 1.48-2.326.846-3.173-.21-3.382-1.693-3.596-.634-2.538 1.48-3.595 6.134-2.54 4.23-4.017 2.538-2.538 1.903-.846 2.116-3.596 2.115-1.058 5.076-.846.212-2.75.634-3.383 2.327-4.018 1.48-1.27 1.903-2.96.423-2.327 3.172-2.538 2.115-1.058.21-2.326.424-7.19 4.02-4.864 4.017-8.248 2.538-5.076-.423-6.556-1.905-3.384-.634-5.92v-9.095l-7.4-6.556-.213-4.864 2.327-2.115 3.383-2.113 1.058-2.327-.635-5.287-.21-3.595 3.17-3.384 4.654-1.904 5.076-.846 6.133-.845 3.595 1.267.212 2.96v2.75l3.807 3.173 1.692 1.903 2.748.635.423-1.058 1.693-2.537.423-3.173 2.75-3.172 1.69-1.48 4.865.422 1.905 2.538.21 3.596-1.056 5.71-1.693 4.44-.423 3.385v4.652l1.057 3.595 2.75 5.71-.422 4.864-.846 2.962 3.383 1.904 3.596 2.326 2.75 1.903 1.692 4.865.846 2.75 2.75 3.806 3.172 3.172 6.133 2.96 3.384 1.904 4.864.212 2.54.846 3.17-.423 4.654-1.27 4.44-1.69 4.02.845 1.48.634 1.903-1.48 1.058-2.96-.212-3.173.423-5.922 1.48-2.325 3.384-2.115 3.384 2.115 4.653 2.326 2.326-.422 2.327-1.48 2.538-1.692 1.692-3.172 4.018-1.27h6.345l2.537-1.057 1.904-1.057 2.96-1.48 3.384-.847 3.596.846 2.75-1.48 2.537-1.27 2.116 1.903 1.903 2.75 1.903 2.75 3.806 3.594.422 4.653-1.48.635.212 4.23 1.48 1.903v3.172l-.423 4.23 1.693 1.057 5.5 2.327 4.65 3.172 1.06 3.807-.636 5.287-.21 3.807 2.114 1.48 1.27 1.48 1.057-1.268 1.692-2.328 3.383-.21 3.807 1.056 3.383.212 1.904-.423 4.44-5.71 3.596-3.807-2.114-3.807-1.905-3.384-2.96-3.808-2.54-2.114-2.96-4.02-2.114-4.44-.634-3.384 1.27-4.018 1.057-4.018.843-3.554.15-.598 1.794-1.645 2.842-1.195 3.888-2.99.598-1.347-.748-2.243-2.69-2.99-1.048-2.244-.748-1.943s-2.393.897-3.44 1.346c-1.046.448-2.84.747-2.84.747l-4.04.45-2.242.298-2.84-1.346-1.945-.448-1.795-3.44-2.243-3.29.298-4.337.748-2.393-.748-2.392-.748-5.833 1.795-3.44.897-1.645.3-3.74v-4.635l.598-2.69 4.635-4.787.898-3.14 2.243-1.944 2.99-1.347-.747-4.786 1.495-3.29 3.29-.598 2.69.597 1.048-.598 3.888-1.197 1.646-1.645 2.543-.748.896-2.094 3.29-.897 2.243.15 2.54 1.045h1.497l.897-1.645v-1.046l.897-1.944 2.693.15.45 1.345 1.046 2.84 2.092 2.693.45 1.645.148 3.44-2.392 1.944-.3 2.692 1.795 1.644 1.645.598 4.187.3 2.842 1.644 1.346 2.99 1.196 2.244.597 1.944 7.477-.15 2.842-1.046 6.13.3 2.843.896 5.233-.45 3.59.9 1.943 1.195 2.692.298 2.69-3.74 1.048-3.737 1.645-3.44.9-5.233-.15-6.88-3.29-3.588-1.945-2.394-4.636-1.794-4.787 1.196-2.84.45-1.795-1.198-.898-3.14-1.495-5.683-1.196-1.645-.45-6.28 1.346-1.646 6.58-6.28-.748-2.244-1.794-1.346-.898-2.243.598-1.645 2.543-2.243 3.888-2.393 2.99-1.645.15-1.495-1.944-3.14-1.644-2.393-.598-3.44.45-2.244 1.793-1.645 2.244-1.495 1.645-2.243-.15-2.542 1.047-2.99 1.794-3.14.9-3.89.298-2.392-.6-1.944.45-3.29-1.12-2.484c.254-.63.156-1.583.28-2.252.192-1.027.524-2.384.845-3.378.28-.865.753-1.985 1.126-2.815.386-.86.82-2.074 1.406-2.814.41-.516 1.28-.89 1.69-1.407.35-.444.738-1.45.738-1.45l-.176-.24s-.385-1.97-.563-2.813c-.16-.762-.23-1.83-.563-2.534-.41-.87-1.255-1.888-1.97-2.533-.592-.534-1.494-1.163-2.252-1.408-1.208-.39-3.055.218-4.222-.28-1.264-.542-2.097-2.6-3.378-3.097-.63-.245-1.576 0-2.057-.277l-.104-4.163-5.683-6.28-2.094-.6-4.486 1.197-4.188 1.795-.898 4.784-1.794 4.786-2.393 3.59-2.094.298.6 2.692-.3 3.59-2.99 2.092h-5.085l-3.29-.598-2.393-1.495-2.093 2.092-.6 3.89-1.495 2.99-.3 10.468-7.177-.3-3.888 2.094-4.188 3.888-5.084 2.094-11.366-.598-2.392-4.187-4.487.3-2.393-2.692-2.99-5.982-5.982-3.59-3.888-.597-4.188-4.488-7.477.898-3.59-2.094-5.98-3.888-4.188-2.094-1.496-1.495.3-2.095-.3-4.486-.896-2.394 1.795-6.28 1.793-2.394-.897-3.29-1.495-2.69-.598-3.29-6.28 2.99-3.59-.898-3.888-1.794-3.59-3.59-5.383-2.69-5.382-.6-7.178-1.196-5.683-3.29-8.075-1.794-3.44 1.346-3.74-.45-3.737-.896-1.645.747-1.346 1.197-3.74 1.196-2.84-.3-.897-1.793-2.692-1.945-3.74-.15-1.195 1.945-1.197 1.346-3.59.15-2.653-1.262c-.535-.7-1.84-.938-2.102-1.657-.225-.62.06-1.614.436-2.156.454-.655 1.687-.846 2.252-1.407.782-.776 1.325-2.205 1.97-3.097.704-.972 1.97-2.036 2.534-3.096.414-.78.622-1.962.844-2.815.197-.753.478-1.76.563-2.533.102-.925.16-2.182 0-3.098-.214-1.236-.963-2.766-1.407-3.94-.322-.85-.804-1.964-1.126-2.815-.444-1.174-.933-2.78-1.407-3.94-.458-1.12-1.347-2.5-1.69-3.66-.168-.573-.166-1.384-.28-1.97-.202-1.026-.616-2.36-.845-3.378-.19-.84-.408-1.97-.563-2.816-.186-1.01-.44-2.358-.564-3.378-.133-1.093-.392-2.564-.282-3.66.062-.61.28-1.423.563-1.97.496-.96 1.604-1.95 2.252-2.814.617-.825 1.374-1.973 1.97-2.815.838-1.186 2.046-2.708 2.814-3.94.66-1.06 1.6-2.47 1.97-3.66.228-.73.205-1.773.282-2.533.094-.928-.06-2.23.282-3.097.353-.895 1.208-1.945 1.97-2.533.51-.393 1.438-.484 1.97-.845.693-.47 1.54-1.255 1.97-1.97.593-.985.8-2.56 1.127-3.66.175-.59.275-1.427.563-1.97.308-.584.862-1.318 1.407-1.69.44-.3 1.24-.272 1.69-.562 1.152-.748 2.37-2.21 3.095-3.378.62-1 .9-2.6 1.408-3.66.507-1.057 1.442-2.33 1.97-3.377.58-1.15 1.064-2.817 1.69-3.94.5-.902 1.417-1.945 1.97-2.816.364-.575.804-1.37 1.125-1.97.357-.666.448-1.92 1.126-2.252.386-.19.978.24 1.407.282 1.008.1 2.367.07 3.377 0 .596-.043 1.41-.077 1.97-.282.75-.273 1.917-.685 2.253-1.407.25-.542-.104-1.4-.282-1.97-.112-.36-.362-.807-.563-1.127-.513-.813-1.265-1.877-1.97-2.532-.223-.207-.7-.295-.845-.563-.28-.52-.064-1.383 0-1.97.085-.774.503-1.758.563-2.534.106-1.348-.023-3.174-.28-4.502-.307-1.573-1.774-3.467-1.69-5.067.053-1.018 1.465-2.077 1.407-3.095-.028-.492-.563-1.003-.844-1.408-.31-.444-.664-1.126-1.126-1.407-.736-.448-2.03-.212-2.815-.563-.77-.345-1.584-1.172-2.252-1.69-.427-.33-.875-1.03-1.407-1.125-.263-.047-.594.19-.845.282-.427.156-.96.477-1.407.563-.082.015-.196 0-.28 0-.423 0-1.032.193-1.408 0-.646-.333-.995-1.373-1.407-1.97-.173-.25-.406-.585-.563-.845-.548-.906-1.055-2.25-1.69-3.097-.5-.67-1.402-1.357-1.97-1.97-.528-.57-1.32-1.285-1.688-1.97-.292-.542-.563-1.97-.542-1.887" id="path3640"/><path id="path3649" d="M694.31 628.087l1.277 1.592v2.114l1.692 4.44 2.96 4.865-.423 2.75-2.75 2.537-2.537 4.018v2.115l1.48.21 2.538-2.537 3.384.212 2.538 2.538 2.96.634 3.173-.21 1.903.845.423 3.172 2.748.846 3.807-1.903.846-5.076.636-2.96 1.692-3.595 1.057-4.23 3.172-2.115 2.115-2.326.846-2.96-.846-.636s-2.326-2.96-3.172-4.018c-.846-1.057-3.384-2.538-3.384-2.538h-4.44l-2.116-1.692-.635-2.326.423-3.172-1.48-2.538-1.692-2.115-1.27-3.597-.422-1.69 1.48-1.905 1.904-1.903 2.326-.635.053-2.167"/><path d="M686.757 612.416l2.274 1.296.424 2.855.423 5.393 2.75 3.912 1.682 2.215" id="path3655"/><path d="M658.18 565.682l3.11 1.65 2.99 2.542 1.645-.897 2.243-1.944 1.047-1.196 1.495.448 5.085 5.234 3.59 4.336 2.093 2.99.3 3.14-1.945 2.095-1.645 1.197-.79.2-.21 1.587-.53 3.595-1.585 1.374-4.02 2.538-2.537 2.22-.95 2.644 1.268 2.75h1.374l2.75.422 3.7 1.375 2.433 2.644 3.067 2.643 2.433 2.644 2.167.502" id="path3660"/><path d="M646.1 566.95l2.926 1.28 5.683-4.936 3.47 2.388" id="path3665"/><path d="M222.063 473.6l.846 5.5-1.48 2.537-2.327 2.326-4.02 1.27.847 2.114 2.538 3.172 1.692 3.595 1.27 1.903 1.69.423 3.596 2.54 1.48 2.114 1.48 1.903 2.962.846 1.903 2.75v5.075l-.845 4.653-2.75 4.654-4.23 5.71-2.96 5.922.635 5.287.423 5.71-3.596 2.115-2.96 4.23-.846 2.326 2.115 1.692 2.327 2.75 5.71-.212 2.96-.423 2.962-.422 4.23 1.692 5.075 1.27 1.69 2.96-1.48 2.537.635 6.134-.423 3.173-2.115 1.692-.634 4.653.21 2.96 2.54-.423 1.48-1.69 1.48-2.962.635-1.48 3.595-.212 1.903.635 1.904 3.807 1.903.635 2.75 4.018 3.595 5.922 4.652 5.71 3.384 6.133 1.058 4.44-1.48 4.02 3.383.845 3.384.846.422 4.866v4.652l2.75 2.96s3.383 4.865 4.44 6.134c1.058 1.27 2.327 4.02 2.327 4.02l2.325 3.805 1.48 4.23.847 1.904 1.692-.21 2.115-4.02 2.536-2.748 4.865-.423 4.23 3.382 2.327 2.96 1.903.424v-4.44l.212-2.75 2.538-2.327h2.75l3.806-.424 2.313-.34 2.99-.597 1.794-1.795 2.393-3.59 1.196-2.69 4.508.648 5.064 1.145 4.012-.21 4.363 1.706 3.887 1.794 1.794-1.495 1.796-.897 2.692-.6 1.495-2.99 3.888-1.794 4.787-2.692 2.093-.897-.598-.897 1.496-4.487 2.093-.3 2.095-1.495 2.094-.898 3.588-.598h2.69l2.693-1.795-.597-2.393 1.795-3.59 1.59-.402 1.904-.846 3.172 1.48 3.384 3.807 3.807.636 6.133-1.058 5.076.635 2.96 1.903 1.48 1.903 2.962 2.114 3.384 2.115 1.27 5.286 1.69.846 1.058-.423 4.864-2.327 3.173-.21 4.23 1.267 4.652 4.442 4.018-2.75 4.442.846 3.806.212 2.75-1.48v-1.058l-.635-7.614 1.27-4.652 4.018-4.442 4.23-2.75 17.34-1.056 2.75-2.538 2.54-5.288 2.114-4.652 2.96-2.538-1.903-3.595.212-8.037 1.267-2.115 3.807-3.595 5.71-2.96 4.442-.424h3.807l.634-2.96 2.115-3.596 3.172-2.75 2.96-.846.213-1.69-.846-4.654 3.173-2.96-.635-4.02-2.326-2.326-1.48-5.075-.423-3.808-3.174-4.442-4.018-3.383-5.5-2.75.424-3.595 2.96-2.75 3.596-5.498 3.384-3.384 3.173-1.27 3.806.424 3.808 1.48 4.02-1.057 4.65-5.922 1.905-3.172V492l1.903-1.48 3.807-1.27 2.326-3.806 3.383-2.115 7.614-3.174 1.692-3.384-1.06-2.96-3.383-.846-2.538-2.327 1.057-4.23 1.903-2.538 4.442-1.058 4.864-3.384 8.882-4.23 6.134-2.96 5.075-.846 4.23 1.48 3.384 6.345.424 2.748-.423 5.5v12.477l.635 7.19-.846 5.5-2.75 5.286-2.96 3.597-.847 4.864 3.596 4.865 1.267 3.807-.423 2.115.846 2.96 4.653 4.02 5.922 3.383 5.922 3.172 3.383 5.076 5.71 8.46 3.384 3.172.423 3.807 4.22 4.45 1.943 4.038 2.393.3 2.99.597 2.095 1.795 2.84 1.645 3.89.45 2.242 1.644 1.71.813" id="path3670"/><path id="path3714" d="M222.063 473.6l-.846-8.67-33.626-7.403-34.26 1.692-37.223 13.323-17.765 14.592-9.94 19.246 4.634 5.124 1.923 3.97 3.17 2.327 1.904 1.905h2.96l1.904-.635.423-1.27h1.27l1.904 1.06.21 1.902.213 2.538-1.48 1.692-1.693 2.538-2.96 1.48-3.596 1.48-2.96 1.48-3.384.847-2.115 2.115-2.962 3.384-2.538 2.96-2.96 3.384-2.75 1.904-2.75 1.27-2.96 1.69-1.904 1.693-2.326 1.057-3.384-.423-3.807-.845-4.654-.21-2.75-.847-1.48.21-1.69 1.482-1.905 3.172-4.228-1.058-4.23-.845-4.23.21.423-2.326 1.48-3.384 1.27-3.173.21-3.595-.634-1.48-1.902-.635-1.903-1.057.634-1.904 2.114-3.383 2.75-.635 1.057-1.48 1.27-1.904 1.48-1.692 1.904-.634 1.48.21 3.172.213 2.115-.21 1.905-1.692 1.903-.635c1.27-.423 3.807-.634 3.807-.634l3.595-1.27 2.326-1.058 1.058-2.115-.212-3.595-1.692-2.115v-3.384l1.48-2.96 1.27-1.48.634-5.288 2.538-2.327 2.75-4.652 2.537-4.02.21-4.017-1.48-3.385-6.556-6.767-6.767-4.865-4.865-3.172 2.115-3.594.846-4.23-.423-7.402 2.538-4.44 3.595-5.5 2.96-4.44 2.75-2.962 3.807-3.173-1.268-5.922-2.115-2.75-5.71-6.344 2.537-3.596 4.865-4.44 10.15-9.306 12.69-11.632 4.23-4.442 4.44-4.018 5.076-2.115 10.152-6.767 7.402-6.768.634-2.75 1.904-1.057 4.864-1.057 3.595-2.115 2.96-3.17 2.962-4.23-1.27-3.174-3.384-1.692-1.48-1.69-.846-2.116 2.115-1.48.423-5.076.21-2.327 2.116-1.903 3.172-3.807.212-6.768.634-6.133-2.538-2.326-2.75-3.807-2.537-3.17 3.807-5.712 5.71-6.344 3.172-3.384 1.692.423 2.75-1.058 4.653-1.69 5.71-2.116 6.134-2.328 2.75-1.48 5.71-.212 1.903-1.27 2.96-4.65 2.962-5.923 3.382-1.903 2.538-.212 2.538-1.057.212-1.904-.635-1.902-2.538-.846v-1.904l.846-1.903h3.384l1.057-1.692.846-1.692.423-2.96 1.058-.846 3.808.212 3.383-.846.847-1.903-1.903-4.02.95-.274c.604-.38 1.43-.88 1.936-1.384.505-.506.86-1.453 1.384-1.938.356-.328.912-.72 1.384-.83 1.053-.25 2.556.572 3.597.277 1.087-.31 2.118-1.57 3.044-2.215 1.228-.856 2.955-1.868 4.15-2.768 1.13-.85 2.546-2.1 3.598-3.044 1.792-1.608 4.863-3.322 5.812-5.535.196-.457.04-1.164 0-1.66-.042-.503.163-1.413-.277-1.66-.39-.22-.946.643-1.384.553-.576-.117-1.384-.796-1.384-1.383s.84-1.16 1.383-1.383c.46-.19 1.175.114 1.66 0 .722-.17 1.647-.627 2.214-1.107.86-.73 1.606-2.093 2.214-3.044.46-.72.907-1.78 1.383-2.49.89-1.326 2.147-3.075 3.322-4.152 1.103-1.01 2.946-1.88 4.15-2.767 1.38-1.015 3.203-2.403 4.43-3.597.547-.534 1.095-1.42 1.66-1.937.526-.484 1.56-.78 1.937-1.385.266-.43.265-1.156.275-1.66.014-.67-.262-1.545-.276-2.215-.022-1 .234-2.322.275-3.32.052-1.245.477-3 0-4.152-.224-.542-1.16-.84-1.383-1.383-.127-.307-.053-.78 0-1.107.042-.26.07-.667.277-.83.65-.52 1.964-.045 2.766-.277.535-.154 1.187-.537 1.66-.83.707-.436 1.427-1.397 2.214-1.66.71-.236 1.756.133 2.49 0 .7-.126 1.62-.446 2.215-.83.493-.318 2.13-1.327 2.517-1.527l.5-2.68 1.268-2.962 2.327-2.113 4.44-1.058 1.27-2.116.21-2.115 1.482-1.693-2.54-4.652-2.325-2.327-1.904-1.692-4.652-.423-4.652 1.27-3.173 1.48-3.807 1.48-4.018-.21-9.305-.424-.846-4.02 1.27-3.172 2.748-2.538.634-4.018 2.537-2.115 1.692-.846 1.057-4.652 1.27-1.903 2.536-.635 1.904-1.69 3.595-2.54 2.96-.845 1.058-2.115-1.48-3.807-2.538-4.018.635-2.75 1.057-1.903 2.115-1.27 5.286-.422 3.596 1.692 5.287 1.27 5.92 1.268 4.02-1.904 3.594-1.48h2.96l3.173 2.326 1.692 2.115 3.383 1.058 3.172-1.27v3.385l-2.115 3.172-1.48 3.384v4.23l1.27 1.057 4.017 1.27 4.23 1.902 4.23-.423 1.692 2.327 3.31 1.92c.418-.528.866-1.122 1.286-1.478.532-.45 1.365-.89 1.99-1.194.748-.364 1.795-.744 2.588-.995.704-.223 1.674-.41 2.39-.597.657-.172 1.52-.47 2.188-.597 1.062-.204 2.504-.322 3.583-.4 1.787-.128 4.193-.424 5.97-.198 1.05.133 2.346.794 3.385.995 1.236.238 2.96.086 4.18.398.44.112.986.394 1.334.63l3.748-1.87 4.018-3.384 1.903-4.017 1.48-1.48 1.604-1.342.512-.56 1.69-1.693-2.537-2.326-2.327-1.48-1.903-.634 2.326-2.75 1.903-.21 1.903 1.056 2.538 2.538s.635 1.692 2.115 1.904c1.48.21 5.075-1.27 5.075-1.27l2.326-2.75 2.327-3.382v-3.807l-1.903-2.327-.634-4.44 2.75-3.596 3.594-1.214 3.184-.736 2.838-.345 2.783-1.403 2.926-2.937.746-4.15 3.43-3.685 2.492-1.19 3.106-.346 2.816-1.125 2.114-1.056 2.327-1.692 1.48.21-.21 1.27-1.905 1.904.212 2.326 1.692.635.423.845v1.058l-1.905 1.48-2.115-.21-.634 1.268-.846 2.115-1.635 1.71c.56.636.75 2.034 1.254 2.832.512.815 1.36 1.788 1.97 2.534.49.602 1.074 1.49 1.688 1.97.744.58 1.942 1.045 2.815 1.406.74.307 1.732.833 2.533.845.882.014 1.97-.587 2.815-.844 1.1-.333 2.623-.633 3.66-1.125.55-.26 1.135-.873 1.69-1.125.875-.4 2.158-.624 3.095-.845.838-.198 1.973-.38 2.815-.563 1.102-.237 2.584-.507 3.66-.844.867-.272 1.954-.832 2.814-1.126 1.164-.398 2.795-.68 3.94-1.126.88-.34 2.066-.832 2.816-1.406.807-.62 1.73-1.66 2.252-2.534.506-.85.762-2.177 1.126-3.096.236-.598.483-1.438.844-1.97.2-.297.513-.708.844-.845.39-.162.997-.098 1.408 0 .735.173 1.53.9 2.252 1.125.57.178 1.373.288 1.97.28.514-.004 1.194-.142 1.69-.28.437-.123 1-.36 1.406-.563.44-.22.94-.687 1.408-.844.724-.245 1.77-.303 2.533-.282.514.014 1.205.11 1.69.282.64.228 1.488.644 1.97 1.126.48.48.822 1.36 1.125 1.97.287.576.6 1.376.845 1.97.174.42.445.968.563 1.408.154.577.157 1.386.28 1.97.13.6.282 1.424.564 1.97.248.48.692 1.086 1.126 1.408.73.542 2.093.573 2.815 1.126.336.257.45.98.845 1.126.73.27 1.89-.123 2.534-.563.5-.345.78-1.19 1.125-1.69.412-.598.76-1.638 1.407-1.97.676-.348 1.774-.032 2.533 0 1.016.042 2.365.196 3.378.28 1.013.085 2.4.008 3.378.282.546.153 1.148.68 1.69.845.65.197 1.572.24 2.252.28 1.095.07 2.57.135 3.66 0 .69-.084 1.627-.253 2.25-.562.485-.24.986-.788 1.408-1.126.422-.338 1.025-.744 1.408-1.126.382-.383.67-1.116 1.126-1.408.293-.188.78-.333 1.125-.28.486.07.998.568 1.407.843.35.235.725.71 1.126.844.8.267 1.97 0 2.815 0 .337 0 .832.166 1.125 0 .43-.243.608-.976.845-1.408.273-.496.714-1.137.844-1.69.136-.574 0-1.378 0-1.97 0-.168-.057-.403 0-.562.225-.62.81-1.41 1.408-1.69.382-.178.988.053 1.407 0 .69-.084 1.6-.32 2.252-.562.176-.065.406-.176.562-.28.842-.572 1.756-1.598 2.533-2.253.414-.35.898-.948 1.408-1.127.717-.252 1.78.093 2.533 0 .346-.043.8-.16 1.126-.282.708-.26 1.576-.787 2.252-1.125.507-.253 1.334-.402 1.69-.844.217-.27.102-.826.28-1.125.645-1.077 2.107-2.042 3.097-2.815.48-.375 1.24-.714 1.69-1.126.398-.365.62-1.214 1.125-1.407.48-.184 1.276-.024 1.69.28.303.226.317.84.562 1.127.472.553 1.31 1.103 1.97 1.408.317.146.78.24 1.127.28.335.042.79.03 1.125 0 .94-.084 2.155-.477 3.096-.562.588-.053 1.387-.094 1.97 0 .527.086 1.162.478 1.69.563.75.122 1.778-.093 2.532 0 .69.085 1.693.15 2.252.563.396.293.69.94.845 1.408.267.805-.082 2.047.28 2.814.46.972 1.774 1.774 2.534 2.534.928.93 1.407 2.814 3.096 3.096 1.69.28 1.36 1.013 1.97 1.407.985.638 2.252 1.97 3.378 1.97 1.126 0 2.552.48 3.66.564 1.01.076 2.364 0 3.377 0 .93 0 2.365.57 3.097 0 .275-.216.11-.824.282-1.127.352-.624 1.026-1.415 1.688-1.69.312-.128.794-.063 1.126 0 .446.087.992.378 1.407.564.518.232 1.147.684 1.69.844.733.218 1.77.266 2.533.283 1.27.028 2.968-.085 4.222-.282 1.032-.16 2.365-.59 3.378-.843 1.35-.338 3.332-.374 4.504-1.126.455-.29.623-1.207 1.172-1.414l.53-2.297-2.748.422-2.96-.846-1.06-1.27.636-2.325.423-1.903L594.92 76l2.327-1.48 1.903-1.057 2.75-1.48 3.383-1.692 2.75-.21 1.48 1.268 2.116 1.48 1.903.635 2.114 1.058 1.058 1.693.634 1.69-.846 1.482.846 1.27 1.904.845 1.48.21.91.13c.724-.69 1.626-1.378 2.133-2.042.413-.54.92-1.322 1.126-1.97.258-.81.285-1.967.28-2.815-.004-.765-.095-1.792-.28-2.534-.11-.442-.453-.967-.564-1.408-.186-.742-.293-1.77-.28-2.533.008-.598.132-1.393.28-1.972.18-.7.123-2.265.845-2.252.535.01.426 1.173.564 1.69.11.416-.004 1.084.28 1.407.178.2.59.207.845.28.334.1.783.348 1.125.283.714-.136 1.607-.78 1.97-1.408.426-.734.344-1.968.282-2.814-.05-.695-.193-1.663-.563-2.252-.35-.56-1.345-.845-1.726-1.332l-1.412-1.51-.846-.847-1.586-.952-1.48-.527-1.058.317-1.48.74-2.75-.106-3.49-.106-1.586.423-.423.847-1.393.73-.898 1.047-1.645.598-.597 2.094.598.897-.298.45-6.43-.15-3.29.747-.748 1.047-.448.748-1.047-.3-.3-1.046.3-1.497-.3-2.093-1.047-.6h-5.682l-1.645-1.494-1.944-1.496-1.794-.448.3-2.393 1.345-2.693.3-1.794-.897-2.842 1.197-2.39 2.243-2.095 2.093-1.944 1.795-1.794 1.197-2.093.6-2.243 1.045-2.393.898-2.243 1.645-1.795 1.645-1.496 1.944-1.496 2.392-1.196 2.692-.598h1.944l1.645-.45 1.795-1.195 1.794-.9 2.692.6 1.944-.15 1.346-1.346-.3-1.944-.597-1.645-1.046-.897.3-1.944 1.644-.45h2.842l3.44.898 1.644.748 3.29 1.346-.45 1.645-.148 1.496.15 2.094.448 1.944.897 2.393 1.497 1.346 2.093.448.898-1.045 1.346-2.543-1.197-4.187-.3-2.094.3-1.494 2.094 1.795 1.945 1.795 1.645 1.496 1.196 1.197.45 1.196v1.795l-.3 2.99.3 1.197 1.943-.15.747-1.046 1.944-.9 1.945-.148 2.542 1.196.898 2.692-.898.748-1.645 2.392-.897 2.244.45 2.243 1.943 1.645 1.346 1.944-.3 2.094-1.644.3-1.496-.3-1.196-1.496-1.047-.748-2.84-.3-2.094.15-1.944.3-.897.897-1.047 1.496.3 1.644-.45 1.944-.3 1.645.503 1.228c.535.486.53.717.766.746.49.06.966-.626 1.408-.845.407-.2 1.018-.326 1.407-.562.667-.403 1.224-1.47 1.97-1.69.575-.166 1.41.083 1.972.283.464.166.924.748 1.407.845.584.12 1.376-.216 1.97-.28 1.094-.12 2.566-.417 3.66-.283.264.033.594.187.843.282.6.228 1.365.63 1.97.844.58.206 1.37.435 1.97.563.585.126 1.426.04 1.97.283.604.268 1.13 1.06 1.69 1.407.706.44 1.75.847 2.534 1.126.906.323 2.142.717 3.11.843l.91-1.796.6-1.645 1.046-1.945.448-1.496-1.045-1.197-1.496-.898-1.795-.3-1.496-.597-.898-1.196.448-1.197-.15-1.495 1.347-1.047 1.495-1.196 1.197-.748 1.045-.3 1.496.3.15.747.748 1.645 1.047.448 1.794.898 2.542.897 1.196.3 2.393.747 2.094 1.645 1.645.897.448 1.496-.748.598-1.196.3-1.346-.3-1.196 1.196v1.795l1.944 2.242 1.196 2.692.598.897 1.346 1.496.898 1.496.144 1.65c.995.464 2.086 1.524 3.09 1.976.56.252 1.358.508 1.97.563.846.077 1.99-.08 2.816-.28.883-.217 2.366-1.014 2.332-.984"/><path id="campione" d="M706.584 607.155l1.058 1.058L708.7 608l.845-1.056.846-1.27-.21-1.585-.846-.318-1.692 1.69-1.058 1.693"/></g></svg>